<?xml version="1.0" encoding="UTF-8"?>
<!DOCTYPE svg PUBLIC "-//W3C//DTD SVG 1.1//EN" "http://www.w3.org/Graphics/SVG/1.1/DTD/svg11.dtd">
<!-- Creator: CorelDRAW 2020 (64-Bit) -->
<svg xmlns="http://www.w3.org/2000/svg" xml:space="preserve" width="194.33mm" height="105.16mm" version="1.1" style="shape-rendering:geometricPrecision; text-rendering:geometricPrecision; image-rendering:optimizeQuality; fill-rule:evenodd; clip-rule:evenodd"
viewBox="0 0 19433 10516"
 xmlns:xlink="http://www.w3.org/1999/xlink"
 xmlns:xodm="http://www.corel.com/coreldraw/odm/2003">
 <defs>
  <style type="text/css">
   <![CDATA[
    .fil1 {fill:#A99EA7}
    .fil0 {fill:hsla(0, 0%, 100%, 1)}
   ]]>
  </style>
 </defs>
 <g id="Capa_x0020_1">
  <metadata id="CorelCorpID_0Corel-Layer"/>
  <g id="_1979296814592">
   <path class="fil0" d="M6902.07 6520.78c64.78,-36.57 120.18,-82.47 189.47,-115.78 72.03,-34.63 125.2,-62.91 194.64,-101.64 76.04,-42.42 132.56,-103.08 191,-7.03 44.05,72.38 66.98,141.87 129.64,205.82 142.33,145.29 190.36,199.12 382.12,279.07 132.6,55.28 325.75,132.59 465.03,153.93 46.29,7.1 220.4,51.14 69.79,84.25 -57.11,12.55 -212.49,3.26 -284.97,6.8 -138.08,6.74 -698.27,0.36 -807.3,-97.4 -104.5,-93.68 -45.23,-67.44 -183.05,-91.69 -53.6,-9.43 -169.3,-83.73 -208.21,-124.05 -71.42,-74.03 -90.98,-100.98 -138.16,-192.28zm474.94 -397.91l-125.81 69.03c-25.37,10.41 -10.68,9.43 -31.47,19.51l-103.74 49.74c-38.46,16.09 -34.36,25.59 -59.78,41.57 -36.62,23.02 -21.61,-6.57 -58.72,24.62 -36.29,30.5 -30.04,0.76 -71.68,30.49 -126.76,90.47 -93.09,-53.33 -130.93,-152.37 -24.99,-65.41 -49.74,-121.06 -5.65,-188.29l49.33 -0.42 10.84 -55.79 52.78 -16.19c15.16,-25.1 9.28,-39.6 40.68,-53.3 31.48,-13.74 35.87,-10.75 61.55,-38.95 33.34,-36.6 24.54,-17.46 53.91,-39.5 24.3,-18.24 12.7,-32.66 46.62,-54.97 80.69,-53.08 -12.94,-1.48 98.64,-95.98 73.75,-62.46 71.76,-86.87 114.02,-89.31 7.98,59.96 0.55,81.39 15.86,144.53 18.32,75.56 -18.93,46.7 9.43,127.49 15.25,43.45 3.38,30.46 3.34,59.45 0,0.02 34.86,165.98 30.78,218.64zm4106.36 -608.04c44.52,5.18 70.16,2.86 66.65,56.87 -8.07,0.67 -49.46,-1.97 -52.24,-3.09 -16.78,-6.76 -16.08,-29.7 -14.41,-53.78zm-4566.47 -42.12c38.03,-32.65 64.82,-93.07 89.35,-105.63 83.49,-42.72 83.28,36.11 100.39,69.06 50.74,27.76 69.49,-1.84 83.67,75.29 -3.96,6.55 -86,64.05 -103.89,83.7 -53.75,59.04 -254.96,275.4 -313.69,274.93 -28.53,-69.06 33.81,-156.83 69.02,-213.93 63.75,-103.4 138.75,-33.38 141.41,-133.36l-66.26 -50.06zm3374.35 -134.84c-40.63,192.07 -32.07,320.7 -135.07,427.47 -163.78,169.78 -79.36,142.65 -170.67,309.95 -39.85,73.01 -203.44,253.84 -269.32,313.05 -105.77,95.06 -200.97,183.18 -316.33,267.95 -145,106.55 -259.85,124.43 -434.39,144.34 -339.86,38.76 -559.31,-10.27 -877.89,-129.64 -167.76,-62.86 -211.94,-104.22 -335.55,-229.94 -74.08,-75.34 -251.08,-217.35 -118.13,-317.75 94.13,-71.07 244.32,-73.95 359.72,-146.68 79.72,-50.25 75.64,-73.42 184.13,-86.84 51.6,-6.37 142.96,8.25 178.28,-18.73 46.39,-35.44 67.87,-87.07 114.4,-119.35 62.34,-43.25 118.03,-36.73 185.74,-56.8 122.3,-36.26 263.82,-95.18 388.23,-137.42 138.44,-47 290.66,-70.47 428.57,-124.61 129.14,-50.69 266.47,-71.03 403.46,-84.33 239.37,-23.22 276.77,-132.71 414.82,-10.67zm402.86 595.9c-8.24,-3.73 -42.47,-43.46 -50.24,-53.65 -21.12,-27.7 -7.79,-59.55 -21.55,-96.41 -33.81,-90.57 -41.47,-54.26 -55.14,-175 -6.87,-60.65 -73.93,-496.27 84.73,-390.72 0.12,36.59 -19.63,45.49 -21.35,84.68 -2.09,47.42 2.89,36.78 -7.3,87.95 -6.9,34.6 5.72,61.32 7.09,97.13 1.5,39.45 -7.6,67.52 -9.4,103.6 -1.85,37 13.08,55.33 14.02,90.48 1.08,40.42 -14.82,66.13 14.48,97.5 42.59,45.59 17.61,23.86 26.97,80.43 5.59,33.77 33.34,48.12 17.69,74.01zm-3305.84 -787.01c-2.03,19.22 23.81,181.62 -71.1,239.82 -31.62,19.39 -42.34,38.35 -79.66,30.54l-23.68 -62.48c-43.9,-12.78 -93.59,-21.46 -124.73,-56.2 -9.65,-85.52 43.88,-61.64 74.83,-99.02 16.2,-19.58 9.5,-26.2 37.17,-47.85 18.82,-14.72 43.24,-21.93 58.13,-35.03 40.82,-35.93 7.33,-39.41 88.32,-89.78 33.49,-20.83 70.16,-74.55 109.42,-68.33 32.74,38 -6.8,43.99 -6.77,101.18 0.03,73.36 -20.4,48.02 -61.93,87.15zm3351.53 -382.98l44.58 -20.12c3.72,39.14 9.15,74.5 -9.23,104.69 -21.69,35.65 -5.48,7.83 -16.7,44.98 -11.7,38.73 -21.64,3.87 -34.03,85.78l-27.41 89.81c-6.51,15.76 -15.32,16.67 -27.09,34.77 -39.6,-3.9 -26.22,5.11 -52.28,-20.1 25.81,-21.46 12.18,-52.3 2.16,-78.33 29.92,-18.8 22.05,-7.73 34.8,-41.59l52.34 -118c10.61,-31.63 16.69,-22.84 40.09,-45.09l-7.23 -36.8zm-3024.13 164.16c-80.05,-9.55 -4.59,5.63 -69.59,10.89 -9.01,-29.39 -13.62,-46.09 10.45,-69.14 38.91,-37.28 9.2,-36.78 43.81,-58.09 57.01,-35.11 7.03,-3.44 41.36,-50.58 16.53,-22.69 46.54,-25.99 72.02,-29.73l18.68 -33.08 37.05 16.1c-7.93,47.71 -50.62,75.78 -75.12,107.57 -18.79,24.39 -2.32,7.78 -13.45,28.53 -27.84,51.87 -60.93,1.02 -65.21,77.53zm-2716.07 -158.73l-36.9 -24.11c-35.89,25.8 -25.61,11.98 -51.16,49.5 -24.35,-21.41 -14.08,-18.62 -48.76,-33.8 -67.99,47.11 -61.17,12.29 -104.12,24.66 -34.06,9.82 -87.15,12.26 -101.32,-26.96 46.93,-20.13 33.45,10.86 98.39,-11.96 76.39,-26.83 93.99,-16.41 148.9,-19.51 36.14,-2.04 23.43,-9.34 47.47,-19.83 29.76,-13 96.45,-11.72 125.52,2.54 11.15,45.94 -30.43,39.84 -78.02,59.47zm396.27 -0.78c29.95,16.84 38.03,-24.72 70.37,-13.67 66.45,22.7 23.2,29.42 112.44,25.6 55.55,-2.38 49.01,29.92 92.69,39.26 36.58,7.83 50.58,-4.32 95.99,12.51 169.02,62.65 248.38,23.66 347.26,27.43 57.01,2.17 47.78,-9.42 90.16,-15.77 44,-6.6 148.18,71.29 177.23,105.74 19.88,23.58 134.51,93.18 170.79,116.66 35.55,23.01 48.44,39.92 79.52,64.64 32.51,25.86 60.71,31.33 91.9,51.89 50.66,33.4 113.68,101.17 169.26,82.75 -1.77,57.05 0.4,37.02 -33.72,70.05 -18.5,17.9 -22.35,40.98 -37.61,63.24 -55.94,81.64 -41.98,34.62 -73.65,137.94 -14.2,46.33 -60.92,92.74 -70.25,139 -17.45,86.46 -22.37,76.2 -73.44,142.74 -33.86,44.1 40.95,67.07 16.76,158.95 -8.09,30.73 -62.36,107.93 -89.69,123.17 -29.19,16.28 -59.72,13.55 -78.5,23.36 -19.95,10.42 -26.79,45.2 -45.84,62.88 -14.9,13.84 -36.56,23.26 -59.52,43.38 -32.81,28.76 -36.18,9.66 -70.86,23.48 -63.69,57.81 55.29,27.23 -239.89,165.07 -45.04,21.04 -12.2,56.02 -96.27,55.64 -4.04,-63.46 -2.35,-64.42 52.55,-66.87 10.57,-78.63 57.15,-36.91 63.33,-114.37l47.84 -2.33c9.19,-28.14 7.3,-16.73 26.47,-38.32 -40,-58.73 -51.46,-2.52 -107.57,45.9 -45.24,39.04 -38.68,20.01 -87.49,33.98 -34.56,44.53 -1.81,58.69 -66.96,79.42 -51.92,16.52 -42.05,35.68 -86.31,65.32 -32.15,21.53 -55.65,31.99 -82.49,60.66 -37.12,39.66 -60.41,22.23 -85.94,59.33 -18.7,27.2 -130.32,90.95 -168.15,119.11 -52.23,38.87 -109.57,99.89 -162.92,133.9 -35.62,22.71 -56.39,23.04 -87.11,55.64 -36.72,38.97 -58.76,33.55 -91,61.43 -53.41,46.18 -44.05,24.27 -96.88,49.26 -18.96,8.97 -59.5,52.15 -80.15,69.71 -71.89,61.13 0.45,144.2 79.44,119.25 75.36,-23.79 170.77,-95.23 185.58,-99.81 63.73,-19.74 118.89,-67.34 177.83,-101.5 35.79,-20.74 64.38,-26.52 98.04,-45.26 35.58,-19.79 59.34,-39.95 91.92,-60.79 69.78,-44.65 112.47,-70.43 185.1,-110.86 75.14,-41.84 95.86,-88.95 174.33,-121.71 53.87,-22.49 45.97,-19.89 81.87,-62.49 39.13,-46.45 125.74,-67.32 185.29,-111.25 62.77,-46.3 195.59,-170.19 254.28,-196.13 169.96,-75.13 71.96,-99.99 181.09,-104.87 25.81,54.03 11.9,73.59 49.94,135.87 22.04,36.08 3.77,46.4 14.1,80.29 4.82,15.8 26.65,37.54 37.52,54.79 -35.17,43.1 -271.37,198.48 -335.59,241.33 -399.75,266.7 -591.27,413.78 -950.56,769.86 -99.45,98.57 -185.74,184.69 -272.42,296.09 -85.7,110.15 -147.75,238.48 -244.06,343.42 -167.33,182.31 -438.9,211.55 -670.56,271.35 -298.91,77.16 -611.76,91.86 -915.86,140.18 -252.99,40.2 -537.52,40.35 -796.19,65.29 -577.36,55.65 -1348.51,-34 -1867.35,-307.42 -243.88,-128.53 -481.52,-286.7 -533.17,-578.53 -52.14,-294.51 61.24,-616.94 230.36,-856.75 235.96,-334.59 916.81,-844.02 1266.01,-1068.88 281.17,-181.05 830.94,-445.14 1159.82,-589.65 134.48,-59.1 284.73,-104.15 423.63,-158.14 421.03,-163.63 431.23,-129.8 867.01,-89.09 176.94,16.53 301.25,0.76 474.17,-29.93l468.56 -52.33c2.08,3.49 -22.57,16.02 -24.43,18.08 -9.55,10.53 -9.81,14.07 -14.14,27.17 -7.57,22.94 -11.87,49.3 -20.18,73.1 -22.86,65.5 -60.53,69.67 -76.85,110.08 -10.05,24.89 -7.71,46.44 -22.21,70.76 -18.52,31.06 -24.58,18.42 -32.03,62.08 -16.06,94.2 -17.1,59.13 -54.66,131.19 -25.12,48.2 -34.04,70.94 -72.28,113.29 -48.59,53.85 -33.89,66.04 -62.93,123.63 -19.92,39.5 -49.86,75.45 -71.74,114.05 -25.26,44.58 -27.57,71.57 -61.17,125.82l-122.81 248.82c-21.79,32.76 -75.86,74.84 -81.08,99.78 -6.97,33.31 9.15,126 30.53,151.76 84.02,101.28 65.43,98.35 199.77,148.27 52.25,19.42 87.98,23.87 118.6,-30.78 21.44,-38.25 47.8,-88.43 3.69,-121.02l-70 39.94c-39.27,-16.48 -120.95,-107.99 -71.07,-152.83l75.63 41.44c34.33,-31.32 -41.3,-81.38 -24.06,-230.64 6.12,-52.98 61.91,-156.88 98.1,-198.66 97.81,-112.93 33.1,-140.44 91.18,-204.8 37.28,-41.3 29.69,-52.72 41.65,-102.55 13.66,-56.91 37.73,-48.79 61.63,-90.38 40.55,-70.54 53.66,-149.78 83.19,-213.3 33.67,-72.45 74.51,-79.96 97.7,-179.8 11.11,-47.85 54.7,-158.97 100.23,-183.15 25.77,-13.68 61.51,-0.37 106.27,-21.53 61.36,-29 47.94,-12 99.39,-17.88 15.74,-30.66 22.53,-76.51 -25.1,-78.3 -28.72,-1.09 -58.47,36.4 -85.44,-16.36 7.32,-62.54 133.27,-97.37 165.42,-50.27 -0.17,39.62 -25.55,66.19 -13.28,102.95zm779.86 -134.43l169.62 -76.89c95.03,-17.21 109.56,-38.74 211.58,-10.33l43.03 -27.52c32.57,17.43 30.24,12.36 33.7,45.03 -29.05,20.1 -20.25,11.84 -54.63,15.32 -26.48,66.17 -23.06,53.88 -91.23,72.06 -57.33,15.3 16.28,13.78 -111.54,40.85 -45.96,9.73 -16.19,-9.49 -54.88,19.67 -29.21,22.02 -30.2,17.4 -61.73,5.2 -54.43,-21.06 -85.37,-1.82 -83.92,-83.39zm-1209.68 -31.81l-27.17 31.65c-66.02,2.38 -110.38,6 -174.47,13.15 -97.01,10.83 -77.91,43.31 -139.21,56.32l-38.24 -23.11c-40.66,9.2 -32.01,10.06 -79.67,12.84 -62.32,51.9 -54.26,9.98 -127.38,33.71 -49.96,16.21 -83.19,25.31 -134.1,20.18 -0.57,0.16 -77.67,72.34 -89.48,1.02 27.57,-27.4 22.88,-4.35 55.66,-20.22 28.75,-13.92 9.34,-25.61 49.88,-32.73 105.12,-18.48 175.61,-43.52 258.03,-48.92 85.18,-5.59 59.53,-9.91 106.65,-53.31l48.35 18.96c108.72,-54.72 139.54,-32.72 277.09,-58.19 46.32,-8.57 41,-23.95 73.26,-41.27 54.68,17.31 73.41,3.79 120.22,31.59l-5.51 28.22c-22.67,16.92 -139.48,31.85 -173.91,30.11zm719.92 -82.23c28.17,-0.35 31.03,12.08 56.26,21.48 47.16,17.59 132.37,-33.94 191.52,55.04 -11.93,26.86 -26.87,9.01 -26.94,38.28 43.42,53.33 79.13,36.12 137.45,43.6 41.31,5.29 83.17,59.5 77.65,92.21 -36.46,14.65 -63.83,1.6 -102.18,3.71 -28.65,1.58 -62.08,16.92 -87.67,14.98 -37.79,-2.86 -135.08,-34.06 -109.85,-90.59 29.88,-14.65 60.62,-0.14 68.97,-35.54 -56.09,-63.21 -81.78,12.84 -155.13,-15.44 -95.74,-36.91 -94.59,63.25 -161.08,-1.75 -4.49,-30.07 8.35,-24.44 8.06,-46.15 -0.37,-27.97 -15.91,-21.26 -12.5,-51.31 51.46,-22.92 51.47,39.2 95.73,27.04 8.09,-35 -13.02,-28.71 19.71,-55.56zm-240.49 18.74c-30.05,-23.37 -44.78,-28.55 -26.58,-68.75 26.96,-9.51 41.1,-4.21 70.02,-4.84 90.75,-1.98 -19.82,-34.49 138.51,-5.03 38.56,7.18 44.35,-4.37 44.43,35.85 -36.18,1.49 -24.8,-6.36 -56.9,-7.39 -29,-0.93 -130.13,39.72 -169.48,50.16zm513.07 -138.7l71.15 -5.58 25.29 -31.11c38.35,34.2 51.88,-14.08 115.18,13.81l1.99 55.71c-57.86,22.04 -44.16,-14.66 -90.61,15.66 -0.13,0.03 -88.3,3.09 -110.66,-15.46 -26.79,-22.21 -10.99,-22.35 -12.34,-33.03zm682.96 -110.17c29.51,5.48 23.93,18 57.42,22.28 29.71,3.79 47.09,-4.89 77.24,-6.4l18.07 42.09c-17.19,37.52 -53.94,44.42 -92.15,41.54 -40.98,-3.08 -77.32,11.03 -118.12,18.04l-29.29 38.86c-65.34,-16.68 -20.7,-52.81 -126.54,-41.31 -89.53,9.73 -122.12,16.39 -139.98,-20.23 15.66,-39.42 118.58,-37.54 157.54,-38.48 56.45,-1.35 38.61,-19.72 75.95,-26.34 22.81,-4.04 63.9,1.99 94.62,1.26l25.24 -31.31zm-1292.54 75.81c-15.74,-46.83 11.45,-37.99 27.66,-130.15 4.46,-25.37 17.7,-35.67 24.86,-60.93 6.42,-22.65 9.11,-45.4 17.18,-68.32 86.06,7.16 53.62,61.77 106.72,100.54 36.19,26.43 84.2,74.88 83.13,122.54 -137.24,-0.26 -108.38,-12.22 -154.45,31.58 -18.25,-1.55 -34.01,-7.05 -52.49,-0.19 -29.28,10.88 -4.1,23.35 -52.61,4.93zm-1456.47 330.25c-2.85,-44.6 -0.86,-70.04 33.3,-102.41 15.39,-14.57 57.36,-56.37 72.35,-62.03 109.56,-41.39 100.77,-85.61 140.39,-114 32.35,-23.19 64.06,-5.71 108.87,-35.46 49.6,-32.92 56.32,-16.7 105.15,-30.67 20.65,-5.91 65.13,-35.91 86.94,-48.41 50.13,-28.73 52.92,-19.48 98.57,-36.4 74.23,-27.51 53.71,-64.01 192.82,-86 38.38,-6.06 65.76,-26.3 103.8,-32.66 256.9,-42.94 175.33,-105.21 253.93,56.1 17.16,35.22 33.13,44.04 43.08,85.96 13.92,58.65 77.52,53.25 56.29,101.66 -58.31,61.56 -86.2,-0.7 -160.11,35.47 -44.4,21.72 -123.24,26.12 -174.51,31.06 -45.42,4.37 -42.4,14.86 -77.74,21.8 -30.44,5.97 -54.31,6.63 -87.98,14.24 -30.51,6.89 -58.37,1.57 -82.68,18.11 -50.71,34.52 -22.61,14.52 -79.02,24.73 -167.88,30.36 -84.01,48.76 -155.25,57.31 -62.23,7.46 -85.74,-22.11 -166.65,16.41l-247.09 59.22c-36.23,15.66 -13.58,30 -64.46,25.97zm4307.65 -401.03c-7.54,82.58 -8.97,36.24 -43.36,93.4 -67.91,112.85 -99.73,66.46 -168.55,111.54 -34.61,22.67 -16.85,8.42 -50.33,18.23 -34.99,10.25 -11.15,16.36 -54.66,5.62 -1.57,-59.03 -17.55,-12.36 91.97,-104.84l107.8 -95.59c30.51,-26.87 25.3,1.96 60.61,-32.51 14.48,-14.15 116.38,-117.85 113.88,-39.45 -1,31.51 -39.68,35.03 -57.36,43.6zm-465.98 1364.7c10.27,115.54 53.81,41.47 124.46,114.56 61.5,-1.8 46.42,6.42 89.15,13.89 40.81,7.13 31.13,-20.59 75.12,12.83 -29.51,22.42 -38.3,32.75 -75.23,48.05 -75.47,31.25 -131.25,76.49 -168.37,86.24 -61.26,16.09 -29.94,26.87 -96.5,29.38 -19.97,16.53 -42.11,41.65 -68.58,50.83 -19.29,6.69 -24.72,0.97 -36.74,6.02 -31.31,13.17 -2.33,14.46 -48.61,18.68 -11.81,-14.65 1.3,8.54 -11.71,-16.38 -4.01,-7.67 -6.47,-14.87 -9.32,-23.61 -5.46,-16.71 -11.38,-36.16 -15.99,-52.68 -7.41,-26.55 -3.84,-35.1 -8.88,-59.32 -3.04,-14.62 -16.71,-37.55 -18.83,-48.26 -11.3,-56.82 8.62,-8.06 12.82,-48.18 3.01,-28.77 -44.14,-66.13 -10.95,-163.86 22.44,-10.9 30.56,-18.77 54.81,-21.07 16.04,18.04 31.94,51.94 41.65,58.84 35.36,25.11 48.73,4.94 76.9,0.66 40.67,21.09 44.03,48.36 77.46,35.25 12.02,-38.41 -16.95,-60.5 -43.26,-87.01 -85.88,1.93 -51.03,5.72 -77.28,-15.84l-26.64 -15.79c-16.85,-11.54 -23.11,-25.46 -34.31,-42.12 -26.13,-3 -42.8,6.08 -57.15,-15.42 -14.16,-21.21 -11.18,-51.98 -5.85,-75.66 36.34,-161.36 216.49,-271.03 343.02,-436.38l220.25 -273.23c27.24,-26.62 61.02,-32.98 81.37,-59.51 23.11,-30.14 114.43,-185.44 148.51,-175.15 18.79,5.68 57.57,107.9 168.1,-43.84 128.05,-175.79 101.21,-58.3 156.05,-58.32 35.05,-14.31 34.9,-46.28 71.44,-48.46 48.79,-2.92 57.69,14.6 65.5,-47.32 -146.26,-64.13 -335.29,56.96 -350.49,5.88 -19.18,-64.43 166.68,-233.33 223.94,-267.34 104.36,-61.97 242.92,-73.81 362.46,-108.91 214.11,-62.86 584.15,-120.81 807.39,-82.12 232.53,40.29 428.11,229.44 523.47,438.24 47.47,103.94 44.1,277.32 66.24,395.59 20.98,112.13 24.01,307.76 -29.65,408.7 -56.21,105.72 -257.25,69.18 -374.4,108.55l-564.58 143.29c-184.37,44.06 -380.9,77.19 -564.55,157.89 -140.57,61.77 -212.33,90.04 -363.65,128.4 -125.69,31.85 -221.89,117.99 -352.62,119.1 -69.03,0.59 -131.35,-34.06 -194.49,-57.08 -53.42,-19.47 -124.43,-29.16 -181.48,-38.01zm-1228.91 -1483.42c20.34,-1.89 47.78,0.89 65.22,-3.17 43.16,-10.04 -5.69,-13.48 45.57,-9.33 43.98,3.55 72.4,0.46 87.55,47.27 -29.61,17.13 -10.8,4.05 -34.35,12.71 -75.83,27.89 14.37,-2.76 -106.64,10.69 -28.24,3.14 -40.61,-6.43 -73,-8.73l15.65 -49.44zm-111.71 635.42c30.05,-66.34 164.21,-99.45 225.38,-140.45 27.84,-18.65 99.42,-52.02 113.76,-63.6 17.31,-13.97 20.46,-36.19 38.12,-55.38 30.07,-32.67 18.67,-9.02 85.88,-86.04l98.79 -69.01c71.71,-11.77 17.71,49.4 191.67,-62.52 53.71,-34.55 76.53,-21.73 133.97,-33.35 68.24,-13.81 226.5,-96.06 236.98,-97.67 40.38,-6.21 78.81,-23.12 118.54,-36.82 55.68,-19.2 67.02,-23.09 124.53,-36.35 2.56,-0.59 192.14,-105.46 234.05,-103.65 56.4,2.45 71.12,-47.61 121.29,-15.86 15.43,9.77 91.31,61.55 96.33,68.2 -17.17,87.61 -39.35,67.68 -105.56,108.49 -50.93,31.39 -67.86,60.59 -122.94,88.34 -108.93,54.87 -217.04,224.09 -315.49,327.19 -40.01,41.9 -54.54,94.23 -83.76,127.92 -30.71,35.42 -90.94,33.05 -133.2,78.7 -64.81,70 -78.87,44.63 -131.31,88.86 -18.82,15.87 -30.52,36.42 -49.04,52.51 -20.9,18.16 -43.78,25.85 -64.9,45.16 -40.39,36.93 -73.85,63.71 -113.35,98.45 -33.4,29.38 -80.14,100.15 -101.09,115.06 -26.25,18.7 -102.63,4.56 -127.06,-15.71 -37.98,-31.51 9.09,-13.45 -100.57,-101.07 -45.92,-36.68 -73.39,-63.18 -126.79,-93.46 -47.56,-26.97 -74.93,-58.19 -127.19,-83.11 -88.16,-42.04 -62.41,-33.86 -117.04,-104.83zm-1078.5 -715.58c-15.12,49.77 9.51,36.93 -27.54,81.81 -29.15,35.31 -15.09,28.19 -31.37,69.78 -42.73,-34.51 -84.84,-106.81 -73.66,-165.51 57.13,-33.51 57.47,-26.89 104.1,-24.32l28.47 38.24zm218.09 -69.2c19.4,-25.63 70.82,-52.69 110.69,-53.99 37.25,-1.21 24.26,15.57 50.5,9.93 21.59,-4.63 33.01,-10.31 62.16,-14.75 68.9,-10.48 74.48,-3.87 138.31,-4.36 31.22,-0.24 43.29,-5.42 69.65,-7.9 33.57,-3.16 36.54,10.07 61.51,3.5 89.74,-23.61 63.22,-3.85 139.99,-3.51 50.15,0.22 56.67,-25.87 113.16,-12.94 10.6,2.43 93.76,45.88 101.07,52.09 62.61,53.16 60.3,22.18 99.89,53.67 -4.11,55.76 -16.49,21.41 -53.83,56.97 -68.46,65.19 -104.8,62.62 -126.24,94.09 -18.44,27.08 -21.43,40.39 -50.65,59.29l-208.1 -4.88c-68.61,15.01 -151.41,45.33 -221.43,39.15 -69.15,-6.11 -286.68,-219.06 -286.68,-266.36zm2071.84 -199.52c73.31,-4.88 130.53,-15.59 202.3,11.05 29.84,11.07 159.83,56.65 171.78,70.1 48.73,54.86 -92.04,84.62 -120,92.36 -175.65,48.57 -137.34,74.9 -305.77,120.91 -100.05,27.33 -54.02,7.47 -141.58,62.31 -32.26,20.21 -136.03,36.4 -188.94,57.74 -227.68,91.85 -243.34,131.91 -226.84,14.6 10.94,-77.77 -102.95,-35.7 -154.95,-63.02 -19.93,-10.47 -40.65,-43.87 -63.96,-61.75 -59.9,-45.94 -145.34,-58.46 58.54,-125.46 67.89,-22.31 113.79,-46.09 175.53,-68.76 56.66,-20.81 122.89,-28.78 186.44,-51.02 62.47,-21.87 134.91,-17.95 206.86,-38.82 87.72,-25.44 114.17,-14.48 200.59,-20.24zm645.58 85.77c58.37,12.36 21.89,-3.79 63.55,-27.69 34.88,-20.01 29.14,7.1 80.89,-29.18 41.54,-29.13 34.56,-21.35 82.09,-28.19 51.65,-7.43 23.74,-32.89 82.13,-23.16 2.36,25.71 -9.55,39.26 -23.76,56.78 -34.54,42.6 -11.63,17.21 -23.19,60.85 -49.32,29.41 -54.6,55.1 -87.64,98.34 -49.67,2.98 -45.86,0.11 -63.87,38.65 -52.39,1.44 -49.08,20.67 -87.53,22.62 -23.97,-16.31 -11.54,-14.67 -42.47,-32.8 9.07,-73.68 12.42,-19.66 -14.23,-86.3l34.03 -49.92zm4462.51 -506.46c289.29,-36.13 228.37,28.34 333.95,153.28l156.94 188.65c23.43,29.15 29.74,57.84 50.32,85.58 0.18,0.23 165.36,166.94 57.57,96.43 -76.33,-49.92 -107.39,-105.51 -196.08,-157.02 -77.23,-44.85 -190.33,-74.07 -275.77,-37.56 -134.83,57.61 -103.98,75.81 -264.99,39.91 -75.17,-16.77 -196.53,-26.23 -274.43,-29.95 -196.65,-9.39 -351.69,70.98 -542.38,103.44 -55.69,9.48 -63.87,12.79 -114.9,37.19 -22.68,10.85 -75.64,34.54 -99.57,17.01 -35.64,-26.1 128.73,-122.58 146.52,-137.28 162.73,-134.45 331.01,-168.01 460.47,-233.93 152.04,-77.41 392.32,-104.52 562.35,-125.75zm-7587.56 343.96c9.46,12.37 10.76,22.83 23.58,37.79 35.04,40.88 103.22,97.14 101.44,148.26 -26.17,17.44 -81.3,32.29 -111.11,15.71 -13.14,-7.31 -76.87,-152.15 -80.83,-191.26 -6.18,-61.04 -39.13,-43.54 -22.57,-105.22 39.67,3.35 26.1,39.16 52.83,65.71 13.18,13.1 24.86,13.59 36.66,29.01zm212.95 -6.8c1.01,35.71 18.21,14.55 9.84,54.75 -32.48,11.65 -70.15,-16.51 -80.34,-46.64 -27.07,-80.02 -26.43,-26.99 -52.42,-74.67 -34.6,-63.48 -100.67,-100.97 -100.64,-161.2 31.41,-35.22 63.24,-54.03 105.96,-26.27 57.56,37.41 34.44,40.13 65.79,84.73 28.22,40.16 35.11,63.56 51.73,111.94 14.53,42.33 -0.84,24.61 0.08,57.36zm9547.27 2490.12c-30.54,-16.21 -25.13,-37.79 -57.47,-78.79 -36.77,-46.62 -31.41,-54.59 -29.65,-116.45l6.57 5.16c-74.42,-43.27 -31.48,-71.09 -118.98,-194.1 -26.81,-37.68 -30.03,-69.27 -47.61,-106.49 -18.13,-38.38 -52.45,-64.06 -46.18,-105.72 -62.53,-22.32 -71.79,-84.58 -99.8,-128.89 -19.31,-30.54 -32.84,-30.05 -44.72,-73.45 -20.2,-73.79 -4.32,-27.34 -38.08,-80.46 -10.57,-16.63 -7.13,-22.75 -14.23,-36.76 -11.05,-21.78 -17.22,-14.8 -27.78,-31.34 -14.59,-22.85 -13.43,-84.07 -6.6,-110.15 6.45,-24.61 26.88,-59.09 34.38,-84.57 13.69,-46.47 -17.16,-31.77 -30.19,-78.54l45.57 -31.99c0.39,-43.76 -12.26,-95.12 -2.28,-128.68 18.08,-60.78 36.43,-188.16 5.56,-238.67 -16.65,-27.25 -44.75,-63.02 -75.71,-61.99l6.87 478.09 -30.21 22.25c8.06,30.68 10.92,25.01 -2.04,56.76 -33.79,7.84 -55.5,-3.47 -71.7,-34.85 -20.92,-40.54 -22.87,-39.26 -56.63,-69.54 -15.64,-51.65 4.56,-27.81 -25.77,-74.49 -17.09,-26.28 -27.1,-43.52 -37.24,-73.02 -18.17,-52.86 -69.95,-70.59 -92.39,-121.44 -23.71,-53.71 -47.88,-84.63 -94.36,-117.6 -14.77,-10.49 -56.04,-131.63 -46.77,-153.11 52.26,-15.14 69.1,13.12 100.66,-34.75 33.19,-50.34 39.6,-22.76 84.12,-52.26 36.78,-24.37 30.85,-41.93 79.26,-57.23 88.82,-28.09 32.46,-17.3 85.94,-55.3 48.6,7.25 46.83,56.96 102.55,39.33l9.73 -81.28c25.2,-18.6 28.65,-9.15 54.12,-20.92 19.67,-9.09 29.32,-25.09 48.63,-36.52 69.22,-40.99 145.99,-52.67 209.59,-95.61 48.65,-32.85 158.38,-63.28 224.57,-96.36 65.88,-32.93 88.09,-0.45 136.56,-24.04 89.89,-43.74 141.33,-63.11 242.81,-53.08 118.5,281.01 22.99,324.51 54.17,567.42 23.02,179.41 49.09,424.06 105.17,592.08 47.74,143.01 149.51,351.18 255.86,458.41 159.51,160.81 24,153.18 303.58,398.04 125.85,110.21 260.86,217.25 379.39,331.62 64.71,62.43 131.84,100.98 197.35,158.06 72.58,63.23 128.43,104.43 211.99,152.6 48.98,28.24 308.68,243.06 399.8,310.97 66.27,49.39 146.54,81.01 219.53,134.67 95.95,70.54 106.31,105.42 235.15,95.34 -25.85,-231.12 -105.34,-117.36 -171.12,-265.74 -21.09,-47.59 -34.29,-119.98 -77.82,-149.55 -37.03,-25.15 -101.71,-28.7 -153.5,-58.85 -63.57,-37.01 -216.5,-166.55 -281.58,-150.7 -38.89,9.47 -57.07,47.85 -103.86,23.47 -35.81,-18.66 -97.63,-85.35 -130.76,-116.13 -40.93,-38.04 -86.52,-60.65 -123.7,-101.34 -37.68,-41.24 -71.29,-78.42 -112.8,-116.47 -85.34,-78.22 -167.77,-93.55 -261.41,-193.22l-222.59 -230.55c-112.08,-91.7 -121.94,-141.1 -195.54,-257.51 -109.92,-173.85 -264.1,-387.21 -301.91,-611.47 -11.52,-68.4 -10.38,-135.27 -21.77,-204.27 -9.58,-58.02 -32.42,-112.51 -36.91,-170.93 -5.26,-68.39 10.13,-132.22 -0.37,-208.29 -8.84,-64.05 -29.62,-75.8 -25.27,-146.48 4.06,-66.01 8.05,-125.16 -13.05,-189.71 -15.33,-46.9 -48.97,-116.22 -93.93,-133.05 -228.03,-85.36 -504.55,109.32 -540.09,115.83 -37.29,6.84 -136.41,41.46 -165.99,62.8 -43.85,31.63 -33.47,17.03 -74.99,35.69 -39.21,17.61 -10.72,25.54 -73.14,46.94 -46.77,16.04 -5.54,30.52 -48.67,42.68 -53.72,15.14 -25.83,17.72 -59.94,45.78 -19.34,-12.77 -24.1,-25.89 -40,-36.71 -17.92,-12.19 -14.57,2.15 -31.04,-12.95 -12.7,-108.88 -6.25,-42.09 -58.51,-117.51 -20.38,-29.41 -25.02,-28.96 -49.79,-51.35 -26.82,-24.23 -20.87,-37.73 -35.59,-68.71 -37.76,-14.93 -9.46,26.02 -47.95,-32.6 -22.54,119.33 -12.18,61.43 35.74,123.81 15.3,19.92 8.18,27.17 28.66,47.35 28.65,28.23 60.28,39.01 86.59,74.87 -28.94,18.31 -13.34,-4.15 -25.37,25.18 14.89,28.38 65.03,53.49 17.38,91.62 -35.46,28.38 -73.64,26.26 -106.12,56.89 -30.33,28.59 -34.16,72.45 -78.28,81.12 -21.7,4.26 -41.9,-5.07 -58.42,-2.72 -26.44,3.77 -23.33,22.02 -41.04,39.88 -42.3,42.65 -157.04,65.11 -170.11,-26.52 -5.51,-38.55 -38.22,-47.33 -61.89,-81.9 -25.27,-36.91 -40.87,-68.51 -62.02,-106.73 -20.84,-37.67 -53.32,-53.76 -74.57,-85.86 -21.19,-32 -32.88,-71.37 -56.93,-104.54 -25.44,-35.1 -71.44,-45.72 -81.5,-71.83 -46.19,-119.86 -155.97,-194.5 -196.72,-276.07 -27.66,-55.36 -51.47,-52.23 -72.21,-88.06 -17.18,-29.7 -45.04,-85.93 -44.85,-115 29.52,-9.01 96.81,-10.91 130.49,-12.28 76.2,-3.1 50.79,4.1 104.55,38.51 30.31,19.41 25.04,9.18 55.94,13.32 40.43,5.42 20.39,11.96 48.94,25.77 26.34,12.73 29.03,1.35 58.23,17.8 35.1,19.79 17.53,10.84 59.21,17.5 50.3,51.14 25.63,70.42 119.62,61.28l17.58 -32.52 87.09 48.07 30.37 -23.95c-64.12,-79.19 -112.6,-72.56 -188.5,-127.9 -22.68,-16.54 -49.25,-19.48 -76.29,-34.12 -20.58,-11.13 -43.73,-29.43 -63,-37.68 -125.2,-53.6 -223.4,-41.91 -254.1,-60.19 -51.76,-30.82 -25.76,-46.62 -166.31,-37.49 -102.83,6.68 -78.85,-19.05 -151.65,-58.26 -118.03,-63.56 -56.59,-157.56 -249.69,-168.37 11.49,95.66 107.27,114.49 135.96,139.03l-19.4 30.94c28.38,32.94 20.38,26.45 19.3,68.72 -75.32,5.89 -121.34,-11.43 -199.43,13.95 -72.28,23.49 -89.58,7.7 -207.01,52.64 -130.81,50.07 -281.98,48.13 -410.55,124.32 -111.36,65.99 -218.96,88.9 -334.05,171.64 -107.16,77.04 -208.17,157.65 -298.33,254.4l-248.63 292.4c-26.04,25.99 -44.89,36.55 -67.83,68.36 -53.77,74.57 -78.95,71.77 -145.23,124.66 -43.79,34.94 -176.98,185.03 -184.8,228.33 -23.75,131.55 15.48,73.98 -93.34,156.17 -32.39,24.46 -32.66,49.57 -42.85,85.6 -9.09,32.14 -28.23,49.62 -45.23,77.86 -48.91,81.24 -8.22,139.66 -101.7,175.31 -19.84,-59.79 -4.99,-112.74 -0.94,-174.24 4.01,-61.01 -8.58,-122.96 -8.54,-185.58 0.04,-64.95 9.37,-111.77 -14.75,-173.62 -34.87,-89.44 -18.43,-65.29 -4.24,-147.86 13.56,-78.88 -91.45,-227.08 -123.91,-305.92 -61.68,-149.82 -89.74,-140.2 -196.71,-243.8 -131.37,-127.24 -498.87,-181.12 -672.02,-143.52 -55.38,12.02 -106.54,6.76 -162.79,15.41 -64.34,9.9 -113.92,32.75 -174.48,45.36 -90.49,18.84 -87.64,-7.66 -167.83,56.8 -70.45,56.62 -67.02,0.9 -146.49,3.03 -63.57,42.03 5.22,104.6 -103.41,80.24 25.45,-120.35 147.22,-231.89 164.14,-257.82 115.45,-177 251.55,-219.28 288.71,-278.65 62.29,-99.49 61,4.49 96.74,-120.99l65.01 -18.96c14.13,-64.24 -26.87,-53.56 -51.66,-87.49 7.45,-19.95 26.69,-35.7 47.66,-37.2 12.94,34.72 -1.02,39.34 32.4,65.44 54.19,-4.95 36.23,-29.3 58.27,-59.97 27.64,-38.46 39.86,2.93 63.14,-64.61 16.93,-49.14 87.9,-117.66 34.06,-177.78 -180.44,28.15 -178.11,118.57 -394.19,301.21 -100.96,85.33 -94.23,75.18 -171.81,183.8 -163.06,228.31 -207.17,181.59 -405.56,314.55 -90.99,60.97 -137.51,71.88 -235.53,112.58 -125.02,51.9 -94.6,73.09 -230.62,18.04 -45.37,-18.37 -72.74,-18.09 -118.36,-27.48 -50.73,-10.45 -89.84,-26.68 -137.36,-44.98 -209.55,-80.69 -654.96,34 -879.64,108.81 -69.33,23.09 -211.6,100.22 -257.01,107.02 -83.27,12.47 -409.73,-108.6 -540.09,-113.05 -54.64,-1.87 -91.59,2.72 -144.63,5.81 -51.95,3.04 -100.54,-8.72 -151.48,-11.27 -112.26,-5.62 -178.65,41.7 -317.54,23.47 -19.92,-88.73 -5.71,-167.18 -36.57,-256.86 -27.7,-80.53 -74.58,-160.96 -135.11,-221.84 -109.58,-110.22 -133.24,-51.98 -241.9,-24.55 -77.03,19.44 -130.3,-105.02 -162.47,-156.82 -89.63,-144.32 -190.16,-283.89 -266.11,-436.49 -59.14,-118.8 -187.63,-384.19 -200.1,-507.38 -19.3,-190.62 -23.04,-129.41 -53.7,-276.55 -30.08,-144.33 -8.64,-418.55 35.35,-559.28 27.31,-87.38 26.09,-169.13 52.67,-259.32 23.46,-79.63 67.14,-171.38 98.89,-249.72 36.91,-91.06 90.12,-136.76 130.19,-218.58 33.82,-69.07 77.91,-133.99 131.51,-188.96 58.04,-59.51 127.1,-89.96 172.22,-164.8 -115.87,-16.43 -111.81,31.66 -174.91,112.19 -48.19,61.5 -104.54,88.91 -153.7,157.56 -196.36,274.18 -335.85,588.09 -381.38,921.88 -34.09,249.92 -31.32,180.65 -13.43,411.36 3.97,51.1 0.95,104.31 8.26,154.09 14.99,102.12 99.94,421.19 141.5,512 97.97,214.08 243.12,424.3 363.9,625.65 49.09,81.83 103.87,108.11 117.97,211.66 15.56,114.2 -6.59,150.23 37.85,274.15 42.25,117.83 49.97,141.3 46.47,268.65 -261.23,66.31 -443.09,135.08 -687.91,245.05 -104.38,46.88 -242.93,86.62 -332.23,158.08 -217.15,173.79 -131.82,322.02 -541.59,425.06 -254.08,63.88 -451.4,145.4 -694.41,249.76 -113.09,48.56 -215.79,112.04 -324.88,167.82 -209.67,107.22 -443.38,201.69 -641.18,323.18 -396.85,243.75 -780.59,495.31 -1120.31,812.43 -175.83,164.14 -351.83,289.89 -471.44,507.97 -131.61,239.98 -195.61,499.15 -169.17,773.1 28.22,292.47 137.97,431.65 369.92,597.09 399.38,284.84 957.39,421.82 1441.2,460.52 523.41,41.87 1046.12,-14.24 1564.69,-81.16 229.7,-29.65 458.58,-93.46 689.2,-136.2 230.35,-42.68 457.6,-96.49 684.3,-155.15 -60.55,158.65 -190.58,455.75 -198.47,613.58 -22.94,458.89 -34.74,274.39 98.44,667.2 49.73,146.67 78.79,136.76 167.48,242.63 105.03,125.37 85.97,116.33 232.95,198.9 44.43,24.97 89.28,55.12 133.82,78.11 49.22,25.4 101.08,44.74 151.1,72.75 120.03,67.22 97.7,88.17 245.62,102.51 133.13,12.9 207.75,42.88 330.45,80.58 120.49,37.02 230.11,2.53 470.68,68.63 96.36,26.48 401.89,33.32 498.39,24.99 207.61,-17.94 422.72,-2.37 635.96,-21.43 142.12,-12.71 119.79,-19.43 283.04,-21.8 135.66,-1.97 177.64,-0.71 239.89,-129.42 -57.93,1.11 -120.72,-8.58 -176.18,3.85 -67.97,15.24 -103.7,36.68 -180.98,47.49 -123.09,17.22 -218.33,8.34 -339.02,17 -87.97,6.31 -229.56,-10.04 -320.53,-16.09 -134.16,-8.91 -256.91,-1.23 -392.86,-25.23 -134.08,-23.66 -249.27,-12.28 -382.43,-34.82 -120.1,-20.33 -269.62,-35.9 -383.6,-65.65 -431.68,-112.64 -1024.44,-338.5 -1147.63,-813.26 -100.48,-387.22 12.65,-733.49 200.1,-1067.33 79.48,-141.57 93.71,-139.72 244.62,-178.35 217.01,-55.56 163.79,-46.35 332.38,-151.24 66.44,-41.34 312.57,-89.45 307.6,-168.04 -51.84,-5.1 -72.95,-12.91 -125.73,-5.48l-28.56 43.65c-85.91,20.54 -45.84,-18.55 -116.09,47.95 -74.47,17.15 -51.56,-23.87 -119.26,15.91 -33.54,19.71 -68.13,35.44 -102.22,50.55 -45.98,20.38 -25.56,41.46 -105.65,44.5 -44.02,1.67 -45.22,38.34 -96.18,22.44 -2.92,-82.8 32.12,-65.64 69.05,-117.29 14.5,-20.3 20.54,-43.47 33.73,-63.31 11.39,-17.14 28.99,-28.25 43.41,-44.36 59,-65.9 113.64,-157.3 177.33,-229.43 56.32,-63.77 149.05,-115.53 211.97,-185.73 42.08,-46.95 81.31,-58.86 112.1,-91.19 40.05,-42.05 26.95,-76.02 91.7,-112.8 65.62,-37.27 56.86,-37.2 105.34,-88.36 38.64,-40.77 78.8,-34.32 123.29,-80.02 109.21,-112.16 228.08,-151.61 327.2,-249.92 24.39,-24.2 83.31,-57.86 117.52,-84.26 41.01,-31.65 80.51,-53.76 122.05,-81.86 45.65,-30.88 68.57,-61.8 111.52,-91.81 64.19,66.04 80.58,137.9 129.21,193.65 61.03,69.95 128.11,77.88 199.69,123.79 89.14,57.15 7.88,139.54 79.15,123.52 135.71,-30.51 128.79,18.93 234.66,53.78 68.95,22.69 408.89,81.91 494.15,91.95l542.79 -2.46c110.7,-13.47 361.8,-104.77 478.57,-144.35 78.43,-26.58 138.17,-57.48 212.18,-89.23 76.1,-32.64 181.67,-49.48 245.3,-87.19 145.4,-86.16 279.02,-74.86 434.8,-170.52 73.17,-44.94 126.86,-25.99 219.86,-89.43 38.3,-26.13 178.44,-71.94 122.19,-135.91 -42.34,-9.91 -41.19,7.77 -74.93,29.58 -44.37,28.69 -83.33,20.66 -127.97,41.59 -34.3,16.09 -60.35,8.97 -131.49,47.22l3.05 36.66c-40.18,-13.82 -14.79,-20.19 -72.01,-12.81l-19.84 38.89 -53.55 -7.09 -5.56 48.83 -95.64 0.96 -14.6 -32.6c95.02,-56.39 0.73,34.54 143.62,-106.88 27.27,-26.99 35.89,-62.8 53.66,-77.14 44.92,-36.27 29.25,-3.12 72.64,-64.54 24.7,-34.95 66.3,-46.73 129.77,-132.93 27.07,-36.77 45.54,-38.72 60.93,-57.55 24.87,-30.4 7.25,-38.97 51.46,-83.07 30.29,-30.21 15.8,-47.57 45.87,-80.86 45.97,-50.9 154.54,-192.45 157.13,-251.42 6.33,-144.49 63.13,-200.71 89.39,-306.16 7.92,-31.81 3.14,-79.77 39.82,-89.01 11.79,38.18 9.56,171.6 21.81,234.85 11.71,60.43 39.91,132.53 55.54,196.62 1.7,6.98 69.22,177.15 73.58,184.92 26.62,47.49 146.84,145.3 49.64,195.2l-36.31 14.42c-28.86,19.63 17.26,15.84 -79.72,28.67l-4.09 38.35c-89.2,13.84 -89.36,41.88 -166.28,56.17l-17.66 47.17 -62.03 -2.35c-33.63,49.8 -8.14,5.32 -49.9,37.5l-1.68 47.96c13.8,-0.27 82.09,-22.85 115.03,-26.27 65.25,-6.79 58.87,-71.42 140.22,-85.85 109.18,-19.37 58,-13.25 136.7,-67.56 33.35,-23.03 129.41,-59.9 165.85,-40 42.9,23.43 86.86,86.98 138,121.32 84.64,56.84 228.65,155.79 319.37,190.98 70.15,27.22 105,60.85 166.05,86.52 175.75,73.87 360.89,132.25 537.52,205.99 86.9,36.28 139.21,9.86 217.32,34.9 115.02,36.87 87.18,36.79 216.71,35.04 76.22,-1.04 166.7,13.92 242.03,15.84 66.33,1.7 74.69,-37.21 140,-15.36 52.88,17.7 134.91,39.48 156.39,-32.55l-45.43 -42.41c-36.32,7.73 -15.59,3.8 -44.34,21.41 -86.25,-48.82 -96.49,-26.18 -170.31,0.94 -47.06,-27.85 -114.12,-38.99 -168.07,-52.91l-41.55 34.56c-33.02,-21.54 -5.84,-15.84 -44.22,-26.73 -30.44,-8.63 -19.8,7.12 -40.32,-27.05 356.01,-48.72 474.03,-29.61 810.82,-197.97 212.33,-106.14 451.65,-273.45 630.72,-429.84 92.29,-80.62 334.12,-346.56 379.83,-462.11 10.26,-25.94 33.05,-116.63 -22.81,-57.72 -45.51,48 -78.51,110.63 -118.55,163.44 -82.45,108.76 -307.34,312.17 -410.9,395.07 -146.4,117.18 -506.41,323.15 -681.78,378.93 -275.18,87.51 -671.95,100.31 -954.57,46.29 -162.48,-31.05 -276.49,-81.41 -428.11,-122.72 -108.27,-29.5 -287.33,-70.48 -373.02,-141.61 -24.69,-20.49 -118.7,-116.69 -138.25,-141.57 -43.32,-55.13 -46.93,-110.42 -50.81,-176.99 -7.46,-127.7 -133.11,-22.99 -143.34,-244.14l46.03 -11.61 6.18 -52.94c47.84,26.46 90.95,68.12 102.66,-16.81 53.78,29.55 34.39,0.16 72.89,-13.07l86.9 2.74c19.66,-27.84 14.27,-34.64 53.15,-19.37 16.87,51.77 -6.64,52.89 -39.16,85.23 -50.07,49.8 -23.27,38.35 -57.81,85.43l-49.83 -3.48c-10.63,32.86 3.34,27.23 -25.26,66.16l-30.94 -22.23c-3.43,34.14 5.13,65.61 35.14,85.56 39.64,-33.03 38.65,-28.31 90.54,-25.27l0.4 -61.1 60.17 -16.41 18.26 -50.14 49.91 -10.71c35.27,-73.47 -30.55,-43.76 73.66,-95.36l11.52 -46.86c31.9,-8.55 53.25,3.39 68.33,-26.39 11.78,-23.26 -1.59,-37.12 15.97,-59.33l57.4 31.89c35.06,-10.39 33.75,-27.51 65.68,-29.2 36.99,-1.96 27.74,13.51 73.88,-0.77 51.89,-16.06 113.34,-18.48 161.38,-34.16 33.34,-47.41 4.12,-74.88 91.92,-61.64 44.84,6.76 95.05,-3.1 104.05,-53.26l-55.57 -38.48 -7.28 51.78 -61.29 -26.75 -15.63 53.51c-45.08,-14.38 -39.35,-40 -97.68,-42.18 -41.35,19.89 -28.36,45.22 -63.26,56.65 -33.27,10.9 -82.21,11.4 -109.57,-9.42 -15.99,-44.17 4.66,-47.03 -4.25,-91.83 -29.84,-20.69 -54.83,-3.12 -76.69,20.7 -38.91,42.38 -12.21,51.64 -22.11,99.09 -26.51,16.95 -23.49,1.82 -50.54,8.96 -45.55,12.02 -61.54,88.63 -143.69,84.49 -68.58,-3.46 -75.47,34.03 -100.78,30.81 -51.72,-6.58 -78.88,-8.16 -131.47,6.83l-15.42 49.86c-52.86,-5.47 -81.88,-45.53 -126.08,-35.65 -17.97,33.02 5.54,35.56 -31.91,65.87 -98.64,12.13 -96.07,-169.06 -95.39,-234.24 0.78,-74.55 -5.52,-85.13 13.07,-155.84 10.21,-38.81 -16.79,-61.02 13.83,-138.41 22.53,-56.96 68.65,-37.56 122.19,-46.25 20.06,-3.26 46.9,-15.09 66.15,-19.41 27.14,-6.08 37.25,3.18 70.99,3.83 68,1.3 85.54,-23.88 139.11,-28.56 22.03,-1.93 122.99,7 147.91,-5.33l31.4 -31.36c-26.5,-58.14 -51.78,-41.01 -107.42,-61.45l-31.93 25.19c-47.97,-22.76 -49.58,17.42 -126.05,4.79 -59.77,-9.87 -98.05,18.1 -129.31,19.29 -91.84,0.08 -32.86,-10.27 -114.34,23.38 -51.75,-101.81 20.97,-206.25 71.18,-293.06 26.61,-46.01 23.34,-91.4 56.61,-143.71 28.89,-45.44 44.01,-95.76 72.3,-142.87 36.89,-61.45 125.65,-215.54 177.98,-254.2 75.17,-55.54 177.1,-127.85 256.49,-175.24l286.51 -136.82c71.08,-34.04 273.6,-70.88 354.85,-76.3 186.34,-12.42 595.39,-84.2 752.58,-10.02 46.61,21.99 81.62,68.39 132.66,74.47 61.75,7.34 108.15,-29.11 168.82,10.41 42.96,27.99 84.25,87.57 48.93,137.42 -4.5,6.35 -105.83,84.06 -117.44,87.84 -26.39,8.58 -55.04,10.23 -80.3,20.48 -34.78,14.13 -34.62,31.25 -61.33,48.74 -27.08,17.74 -292.11,90.36 -334.53,95.93 -71.24,9.36 -103.81,-9.47 -166.58,38.73 -57.27,43.98 -103.04,18.46 -171.82,41.05 -73.44,24.11 -56.82,-45.29 -114.23,-56.92 -46.85,-9.49 -56.93,79.78 -78.94,116.32 -35.36,58.7 -59.48,64.32 -78.98,139.42 -17.83,68.64 -104.82,227.65 -152.38,281.15 -38.13,42.91 -33.7,85.23 -74.76,120.45 -68.21,58.52 -91.87,-7.8 -100.73,5.45 9.21,62.89 37.35,96.36 -8.35,149.38 -23.49,27.25 21.06,49.43 67.69,15.35 35.55,-25.99 24.44,-31.12 44.11,-59.34 19.83,-28.46 36.05,-12.53 61.22,-40.31 14.59,-16.11 19.04,-39.82 35.52,-54.35 15.58,-13.74 18.56,-3.55 32.83,-26.86 9.5,-62.21 -13.16,-69.76 37.01,-116.63 54.4,-50.82 88.82,-141.46 126.18,-196.14 10.11,-14.8 24.23,-26.83 34.02,-41.68 12.62,-19.15 15.46,-37.58 28.27,-56.35 42.1,-61.64 198.1,-53.73 240.27,-83.27 47.06,-32.95 17.47,-50.17 78.53,-31.35 50.31,15.51 336.17,-70.25 366.08,-98.32 45.58,-42.77 70.99,-25.22 125.67,-35.82 47.27,-9.16 60.73,-36.46 101.45,-58.57 71.37,-38.77 142.96,-33.36 206.85,-98.15 16.13,-16.36 76.36,-67.03 83.26,-77.01 32.47,-46.93 -1.37,-67.26 74.41,-77.9 45.18,71.41 97.45,127.88 140.28,199.12 20.3,33.76 38.5,72.29 64.62,101.77 27.21,30.73 75.71,58.91 90.03,97.28 36.45,97.67 -96.87,115.18 38.44,138.98 104.57,18.39 104.09,110.73 162.86,185.69 59.86,76.35 82.81,92.4 125.71,184.08 44.35,94.78 76.17,130.84 128.04,214.57 49.87,80.49 42.06,144.69 115.83,223.02 92.64,98.37 302.59,509.92 368.79,649.54 96.99,204.52 130.4,204.06 216.73,470.86 32.92,101.73 26.29,177.66 1.53,280.62 -25.92,107.76 -61.7,136.6 -153.65,190.08 -76.36,44.42 -133.44,84.24 -217.2,119.06 -115.79,48.15 -145.08,51.74 -262.24,11.31l-14.8 -106.36c13.87,-38.13 9.62,-9.9 15.68,-30.35 11.98,-40.43 10.07,-74.92 4.08,-114.76 -7.22,-47.98 -34.24,-81.4 -83.05,-91.54 -82.67,-17.19 -22.52,-43.48 -138.4,-28.41 -50.85,6.61 -118.55,3.5 -173.44,12.28 -35.21,5.63 -45.95,-1.71 -65.63,2.09 -13.84,2.68 -52.14,24.76 -66.05,27.09 -50.36,8.47 -88.86,-6.54 -144.8,7.22 -28.35,6.98 -37.5,-10.93 -69.39,-0.22 -37.07,12.45 2.35,9.21 -57.85,17.09 -58.01,7.59 -101.91,3.09 -140.61,46.73l19.99 22.43c108.73,-14.16 105.65,-30.4 163.12,9.3l17.82 -44.38c47.09,24.91 46.19,-5.4 84.19,24.25 13.21,44.19 -14.69,73.73 -49.38,96.75 -45.06,29.9 -13.01,66.77 -58.77,91.97 -63.23,34.82 -36.99,34.05 -59.04,95.71 -12.67,35.42 -57.36,44.09 -77.02,82.73 -17.94,35.26 -19.13,67.11 -50.46,101.52 -69.85,76.72 -46.18,122.76 -98.59,206.31 -48.33,77.03 -34.31,26.89 -22.92,105.86 -25.28,12.58 -45.51,12.51 -72.05,27.37 -44.72,25.04 -21.82,35.07 -45.08,65.29 -31.22,40.57 -80.46,80.22 -85.94,131.65 15.16,13.99 16.11,15.29 30.31,30.08 60.63,-39.59 64.37,-125.56 120.7,-85.44 4.21,44.42 -41.66,118.44 -57.95,166.72 -16.29,48.28 -27.74,137.54 -36.27,191 -32.45,203.35 -59.7,178.21 -3.87,418.35 34.64,148.99 27.87,224.62 132.41,350.81 145.16,175.23 316.94,324.5 529.07,406.9 134.79,52.35 193.39,86.62 348.13,108.1 54.64,7.58 140.92,37.85 186.81,35.1 63.23,-3.79 127.86,-0.61 187.79,-19.34 80.29,-25.11 102.01,31.39 167.87,-11.57 82.11,-53.55 97.49,17.92 136.73,-42.45 -92.32,-60.36 -101.96,-33.16 -206.64,-38.19 -195.22,-9.39 -381.33,-4.34 -569.29,-59.07 -77.15,-22.47 -161.32,-69.79 -237.88,-100.69 -189.45,-76.47 -247.1,-145.12 -378.99,-290.09 -69.54,-76.43 -99.71,-109.75 -125.82,-213.96 -52.14,-208.08 -101.46,-336.4 -31.74,-549.04 75.26,-229.55 75.38,-505.94 273.56,-744.15 90.84,-109.19 68.03,-120.04 130.87,-199.19 25.35,-31.94 58.79,-56.04 78.02,-90.45 23.35,-41.79 30.19,-67.95 61.59,-109.33 28.91,-38.1 39.25,-46.88 53.39,-93.96 11.74,-39.14 19.97,-62.41 58.85,-81.76 47.34,-23.58 259.47,-42.46 277.05,24.83 16.26,62.23 -55.19,-2.22 13.15,253.92 15.55,58.28 27.09,55.81 61.21,98.93 74.29,93.85 251.57,27.8 342.89,11.18 50.55,-9.21 54.46,-40.01 103.92,-56.95 223.17,-76.42 214.86,-154.93 279.16,-202.44 67.48,-49.85 57.68,-157.41 89.95,-232.14 32.41,-75.06 -41.21,-203.11 -47.43,-247.89 -5.15,-37.09 -13.26,-104.77 -22.82,-138.72 -17.19,-61.06 -46.64,-32.11 -44.08,-123.37z"/>
   <path class="fil0" d="M18087.82 8875.44c15.8,-29.14 108.55,-73.28 143.5,-102.09 24.71,-20.37 47.63,-27.55 74.38,-44.85 28.76,-18.6 48.85,-50.49 67.58,-60.24 43.35,-22.57 28.31,17.11 65.89,-32.03 27.63,-36.15 50.1,-18.99 87.98,-41.72 64.37,-38.62 75.64,-69.67 122.36,-122.12 18.82,-21.13 46.2,-33.61 64.9,-53.75 45.76,-49.25 93.91,-154.6 202.77,-173.91 69.08,-12.26 -11.19,-17.71 135.79,-107.43 48.74,-29.75 117.87,-55.35 172.04,-78.96 0.85,55.22 4.24,41.19 -31.77,77.08 -32.23,32.11 -7.89,30.28 -33.88,67.07 -54.77,77.54 -72.19,15.54 -79.4,123.29 -41.64,32.71 -15.7,11.1 -41.21,52.03 -11.71,18.79 -28.49,23.01 -49.79,50.07 -4.59,47.3 -7.24,93.91 21.01,134.41 35.91,51.47 65.54,42.17 124.21,36.24 33.63,-35.23 24.51,-18.75 55.87,-41.64l1.25 -50.65 -49.26 -19.29c1.29,-51.31 17.07,-37.13 42.33,-71.83 18.28,-25.12 18.2,-37.88 43.54,-67.35 72.75,-84.62 51.41,-83.52 84.44,-134.83 44.24,-68.73 171.85,-207.85 98.51,-296.46 -18.73,-5.33 -77.65,-8.5 -97.13,-6.48 -36.95,3.84 -30.04,24.02 -66.76,33.85 -78.79,21.09 -71.69,-0.6 -152.66,50.62 -72.78,46.02 -51.2,16.18 -117.52,84.88 -30.44,31.53 -40.52,11.4 -70.6,31.73 -20.18,13.65 -25.67,29.59 -55.87,46.24 -79.07,43.61 -167.21,175.36 -207.39,199.37 -61.63,36.83 -65.1,21.04 -121.5,80.36 -22.71,23.87 -117.42,67.99 -149.72,71.93l5.45 9.97c-39.87,63.91 -42.39,12.57 -76.97,68.09 -29.76,47.77 -80,52.59 -126.69,72.22l-125.88 67.1c-29.64,14.76 -64.76,39.69 -86.79,49.09 -46.89,20 -43.67,23.26 -82.34,44.03 -109.24,58.69 -211.87,52.05 -211.94,52.07 -21.71,13.56 -26.36,29.1 -46.86,36.83 -30.46,11.48 -53.63,0.29 -83.73,2.84 -25.37,2.16 -34.23,13.46 -62.3,12.37 -28.33,-1.1 -55.12,-1.36 -82.41,-2.34 -27.77,-0.99 -183.48,-61.31 -236.73,-114.43l5.17 2.7c-167.49,-55.49 -231.89,-248.29 -217.56,-400.7 3.94,-41.91 -2.89,-84.74 1.35,-117.69 5.02,-38.95 30.76,-88.69 31.49,-115.31 1.11,-40.86 8.73,-83.21 18.74,-123.26 13.59,-54.41 6.14,-95.7 6.13,-150.99l7.01 4.66c-18.72,-9.57 -21.79,13.08 -10.64,-24.37 -23.49,-5.11 -16.91,-14.29 -27.99,-40.69 -9.66,-23.03 -13.28,-26.91 -32.45,-41.09 -130.52,38.93 -55.55,88.47 -116.18,137.74 -87.74,71.29 -71.39,-5.65 -115.04,62.74 -16.92,26.51 -12.88,8.36 -7.28,28.23l65.2 6.12 26.9 -43.01 54.11 3.86c21.23,41.04 9.6,104.84 -4.87,148.41 -16.48,49.61 -17.92,91.73 -26.24,142.48 -20.95,127.72 -34.98,145.93 12.99,275.52 30.01,81.08 22.59,176.86 96.52,232.48 53.36,40.13 38.78,14.16 86.28,74.68 65.96,84.07 117.67,87.47 210.98,118.39 96.82,32.08 169.77,113.66 390.9,52.76 45.38,-12.5 72.64,-33.64 119.52,-40.86 79.36,-12.23 278.61,-139.19 358.26,-124.18z"/>
   <path class="fil0" d="M9741.2 9886.14c59.38,62.49 112.92,22.2 164.92,-16.38 58.35,-43.3 97.82,4.1 149.11,-45.98 18.77,-18.32 30.6,-51.21 56.72,-56.88 29.07,-6.31 54.46,12.13 92.37,0.61 21.45,-6.51 100.33,-57.53 124.98,-71.99 69.99,-41.08 67.85,16.69 130.92,-46.01 59.29,-58.94 101.9,-14.98 175.85,-63.25 58.91,-38.46 111.94,-54.73 165.05,-89.61 39.54,-25.97 247,-96.7 97.18,-104.09 -36.81,-1.82 -61.51,15.95 -90.33,35.51 -74.79,50.76 -95.58,34.52 -160.86,66.4 -58.25,28.46 -123.43,18.14 -169.09,51.16 -99.96,72.31 -14.79,51.63 -160.33,81.83 -73.23,15.2 -50.76,51.19 -144.22,63.37 -102.85,13.4 -55.81,39.07 -141.87,65.76 -27.58,8.56 -47.49,22.67 -71.48,31.03 -39.83,13.88 -224.96,53.23 -218.92,98.52z"/>
   <path class="fil0" d="M8987.37 10121.47c-48.51,-14.87 -41.79,-24.58 -85.62,7.63 -36.82,27.07 -58.44,13.9 -101.89,15.23l-27.46 30.73c-49.16,-14.66 -14.06,-3.21 -57.37,8.99 -21.49,6.06 -59.57,10.88 -81.71,15.94 -37.43,8.57 -37.41,31.09 -71.86,37.39 -39.1,7.16 -61.73,-8.88 -103.45,6.81l-7.55 61.38 41.79 32.68c37.65,-19.82 12.65,-27.18 61.66,-32.59 60.9,-6.72 28.38,-7.96 75.1,-27.05l46.06 24.09c33.43,-25.52 13.05,-33.89 42.06,-63.07 48.83,-2.85 40.64,38.87 119.9,17.64l28.99 -47.39c37.98,5.34 28.45,13.51 58.64,24.86 35.58,-12.61 26.68,-27.7 61.42,-39 58.85,-19.15 19.76,-0.95 58.41,-38.5 100.32,2.61 83.19,9.68 150.39,-49.14 51.65,1.21 32.25,7.5 74.68,-19.76 78.69,35.04 63.45,12.15 101.24,-49.33 35.51,-2.39 33.95,12.62 52.13,-13.77 -16.64,-35.25 -76.94,-36.98 -116.37,-35.85 -82.99,2.39 -104.33,49.58 -153.07,62.03 -27.11,6.92 -43.14,-0.95 -76.73,8.2 -85.38,23.23 -44.28,21.15 -89.39,61.85z"/>
   <path class="fil0" d="M12704.46 8105.21c-37.95,74.4 -3,25.4 -61.27,68.6l3.75 41.2c-67.33,37.03 -63.5,-6.26 -88.91,67.08l-39.14 10.54 -13.21 37.98 -42.21 8.93 -19.38 48.11 -42.53 -2.52 -23.34 38.83 -43.97 6 -8.81 50.01c-28.77,19.84 -16.61,10.36 -36.14,32.5 -27.01,30.63 -17.25,5.35 -50.06,28.3 -5.65,104.99 65.9,28.33 83.17,13.26 50.49,-44.03 20.25,-22.28 83.69,-42.83l12.02 -46.16c103.23,-23.98 45.33,-19.77 79.38,-49 33.12,-28.45 -4.32,37.4 90.21,-97.04l24.47 9.51c22.53,-53.46 12.76,-49.39 68.36,-59.87 20.27,-31.8 7.77,-23.74 43.43,-41.93l5.71 -36.88 33.64 -15.72c8.61,-59.92 32.3,-42.4 23.52,-74.9 -12.37,-45.75 2.12,-6.03 -17.72,-24.86 -44.56,10.28 -2.84,-0.46 -32.3,20.26 -6.83,4.8 -15.37,2.69 -32.36,10.6z"/>
   <path class="fil0" d="M8781.76 4151.54c-123.74,-5.41 -40.37,38.2 -27.65,75.04 5.59,16.19 6.3,35.31 14.48,57.14 7.34,1.7 72.84,0.77 78.53,-0.88 44.61,-12.95 -4.14,-18.07 80.45,-20.58 31.38,-52.39 126.03,-124.98 45.75,-182.07 -16.69,-11.87 -37.35,-17.79 -53.96,-15.99l-19.9 5.6c-53.04,14.02 -40.78,-0.86 -86.9,34.06 -33.82,25.61 -13.65,1.08 -30.8,47.68z"/>
   <path class="fil0" d="M13131.79 6858.15c-65.47,-22.29 -60.33,-7.71 -125.53,-19.34 -31.62,29.81 -11.77,23.18 -88.02,21.07 -11.88,40.96 -10.55,73.48 29.73,92.4 45.39,21.32 48.62,-16.36 68.6,-41.92 76.47,4.36 25.51,-2.9 84.18,-23.3l97.78 56.83 26.17 -43.25 84.75 6.09 10.33 -19.98c-28.4,-17.58 -12.15,9.16 -38.85,-20.84 -47.7,-53.59 -45.93,-39.36 -149.14,-7.76z"/>
   <path class="fil0" d="M11945.09 8726.79l-4.68 54.3c-45.27,35.17 -12.75,45.42 -68.38,76.82l-38.24 -15.91c-82.16,48.49 -20.78,85.3 8.33,108.86l18.05 -45.37c42.98,-16.43 40.24,2.38 63.81,-38.2 27.25,-46.92 30.97,-28.62 74.18,-36.72 30.74,-5.77 107.03,-78.01 118.66,-100.78 -22.09,-27.05 -41.83,-31.88 -73.29,-23.84 -37.48,9.57 -66.86,4.43 -98.44,20.84z"/>
   <path class="fil0" d="M8357.74 10297.6l-40.2 -18.56 -45.99 42.46 -61.34 -8.06 -35.41 34.46c-10.02,-7.07 -52.74,-92.49 -115.06,-0.07 5.78,27.4 22.22,51.46 45.07,67.75 21.15,-17.6 11.67,-8.91 21.09,-37.03 43.64,-3.37 72.44,11.1 111.67,-8.28 50.33,-24.86 55.07,0.75 112.27,10.15 27.17,-46.97 9.86,-34.04 72.49,-51.34 5.47,-35.03 7.58,-27.8 -11.04,-54.23l-53.55 22.75z"/>
   <path class="fil0" d="M11663.18 8971.95l-32.5 -2.49c-33.04,44.14 -15.13,32.75 -74.37,45.85l-19.98 39.6c-31.7,8.49 -19.64,-2.14 -47.08,14.76 6.3,85.63 76.24,36.03 99.6,13.09 20.93,-20.55 61.47,-26.59 92.43,-34.91l16.92 -50.3c47.23,4.22 20.74,8.02 75.08,-10.32l10.23 -46.82c-25.6,-19.57 -41.87,-14.91 -72.03,-21.75 -31.43,24.86 -30.18,17.34 -48.3,53.29z"/>
   <path class="fil0" d="M12737.36 5049.07c2.04,38.9 11.7,32.86 25.37,64.67 15.21,1.06 19.44,-0.44 28.89,-0.84l11.3 -0.44c1.52,-0.05 3.99,0.33 5.48,0.25 1.51,-0.08 4.08,0.43 5.57,0.25 24.71,-2.93 18,-6.87 39.34,-24.94 28.68,2.31 34.63,9.07 56.87,6.62 26.58,-2.93 32.06,-5.6 63.19,-4.79 35.36,-42.23 89,-75.88 -26.45,-108.71 -38.47,28.78 6.39,15.07 -41.35,25.29 -39.76,8.51 -14.37,1.64 -49.25,17.8 -27.77,12.86 -30.39,2.31 -56.68,11.2 -34.44,11.65 -12.14,11.65 -62.28,13.64z"/>
   <path class="fil0" d="M9592.87 9939.4c-57.53,5.18 -39.47,-10.37 -84.02,-23.74l-27.98 41.85 -18.63 -15.33c-11.65,51.78 -27.04,18.58 -27.19,74.09 30.8,8.14 34.28,-1.36 76.3,9.98 26.45,-19.73 42.23,-26.5 66.14,-44.74 26.6,28.33 28.79,17.21 77.08,19.65 9.01,-11.73 20.06,-29.38 30.94,-45.17l25.84 -46.77c-32.21,-2.6 -57.36,-18.36 -74.77,-18.17 -35.27,0.39 -26.25,22.49 -43.71,48.35z"/>
   <path class="fil0" d="M12545.81 2926.25c38.58,14.99 59.79,-4.02 73.9,43 9.48,31.61 12.08,61.62 39.62,84.16l7.04 -14.37c0.58,-1.28 1.84,-4.93 2.54,-6.32 9.72,-19.22 3.09,-6.4 18.62,-15.2 12.75,-7.22 5.46,-2.58 15.99,-12l-21.46 -28.04c-40.25,-4.29 -9.93,10.32 -30.15,3.23 -14.8,-27.87 -4.4,-74.13 -11.28,-107.65 -7.54,-11.76 -81.4,-52.32 -143.9,-54.59 4.14,45.29 2.25,21.46 28.7,51.98 21.83,25.18 7.55,22.3 20.38,55.8z"/>
   <path class="fil0" d="M13898.6 3735.57c30.11,39.07 108.82,126.42 156.01,124.59 21.2,-31.76 -15.07,-0.33 20.42,-48.53 -27.71,-32.8 -30.71,-65.28 -56.82,-79.92 -14.06,-7.88 -32.42,-10.86 -46.89,-21.31 -30.62,-22.11 -7.53,-20.75 -51.21,-29.63l-21.51 54.8z"/>
   <path class="fil0" d="M11322.11 9153.4l-4.16 45.2c-33.81,10.59 -20.86,-2.44 -50.37,12.92 12.81,44.19 24.79,38.81 63.63,29.64 16.8,-29.64 -0.39,-18.68 23.51,-46.28 32.24,-4.09 2.1,11.82 46.19,-12.72 37.58,-20.92 93.35,16.67 69.68,-74.74 -113.1,-15.15 -35.02,34.18 -148.48,45.98z"/>
   <path class="fil0" d="M12361.08 2667.52c21.21,30.79 6.08,8.65 35.1,26.2 3.09,77.92 54.45,95.35 128.79,83.63 -29.59,-83.6 -36.72,-66.82 -42.68,-97.87 -39.86,7.84 -11.61,-9.42 -59.27,5.45 -16.73,-27.62 3.51,-15.15 -24.9,-34.35 -19.05,1.47 -28,-0.96 -37.04,16.94z"/>
   <path class="fil0" d="M14290.34 4403.79c18.06,16.98 28.7,15.38 39.24,41.11 13.76,33.59 -1.34,44.61 17.19,74.26 96.29,4.35 15.66,-128.86 -4.64,-162.57 -52.98,-7.28 -64.2,-19.05 -51.79,47.2z"/>
   <path class="fil0" d="M12609.97 5191.71c-31.8,-15.94 -48.1,-6.89 -85.83,-8.66l-15.21 41.95 -92.12 -5.74c1.27,28.17 14.14,32.48 31.27,55.53 27.5,-18.12 37.18,-8.49 76.82,-7.48 58.82,-100.3 131.44,-13.43 123.61,-98.65 -25.93,0.07 -18.8,-1.9 -38.54,23.05z"/>
   <path class="fil0" d="M12832.8 7975.21c13.05,28.96 7.06,15.39 28.04,38.92 34.76,-4.9 19.6,-2.77 47.79,-15.76 21.82,-10.07 7.47,1.03 47.11,-3.37 7.53,-36.45 3.31,-26.44 30.18,-50.22l-17.05 -61.37c-58.82,-0.75 -35.38,22.09 -62.3,53.09 -41.41,47.68 -32.58,10.19 -73.77,38.71z"/>
   <path class="fil0" d="M11580.4 5339.55c26.57,20.72 27.4,13.81 63.26,12.97 1.14,-35.75 5.03,-28.7 1.07,-58.76 37.98,4.15 16.57,14.02 52.57,3.21l5.85 -44.19c-25.81,-15.99 -55.85,-19.11 -84.41,-17.9 -20.95,23.78 -45.87,72.16 -38.34,104.67z"/>
   <path class="fil0" d="M15035.93 9267.64l-28.79 28.58c21.83,23.97 13.99,29.78 34.48,58.22 67.17,5.21 135.44,-18.49 131.13,-97.58 -83.21,19.38 -71.13,78.53 -136.82,10.78z"/>
   <path class="fil0" d="M11973.05 5394.53c-10.29,24.12 12.18,60.54 28.59,81.6 35.52,3.69 44.37,5.92 65.63,-21.81 36.36,-47.42 18.77,-11.01 59.4,-34.17l-68.68 -41.18c-16.45,4.01 -28.42,12.45 -42.86,13.52 -32.96,2.45 -7.31,-16.12 -42.08,2.04z"/>
   <path class="fil0" d="M12153.3 8615.15l-65.39 -11.45c-3.43,42.66 12.3,46.87 45.51,60.45 23.5,9.62 57.71,24.67 82.19,20.43 18.44,-114.03 -31.29,-105.54 -62.31,-69.43z"/>
   <path class="fil0" d="M15363.71 9184.39c23.75,84.36 -102.66,34.58 -155.82,62.91 15.95,44.82 85.63,16.21 135.08,15.14 30.2,-19.84 3.55,-12.11 35.54,-19.07 23.97,-5.21 19.09,-6.36 38.36,-29.7l-11.37 -42.6 -41.79 13.32z"/>
   <path class="fil0" d="M8658.58 5880.67l-99.19 -36.68 -1.73 48.09c0.71,14.67 -5.05,25.96 23.22,33.08 32.1,8.09 80.86,-5.78 77.7,-44.49z"/>
   <path class="fil0" d="M14750.18 9391.19c39.27,30.1 36.86,57.33 91.36,40.24l-10.02 -63.32 -62.18 -30.75 -19.16 53.83z"/>
   <path class="fil0" d="M8295.3 4661.27c-3.41,33.54 17.05,53.41 28.38,84.04 -13.59,27.88 -1.39,6.02 -31.75,23.03 11.95,33.16 7.85,44.94 40.45,58.7 14.23,-25.66 -1.83,-11.61 4.37,-53.31 6.35,-42.73 9.83,-24.42 19.9,-55.5l-27.25 -32.96c31.39,-16.08 0.47,-9.09 33.34,3.6l-4.7 -36.51c-32.91,40.86 -31.84,17.93 -62.74,8.91z"/>
   <path class="fil0" d="M8691.91 5935.3c39.47,-38.57 69.48,0.11 104.04,5.94 53.21,-51.44 -38.38,-70.66 -79.45,-69.15 -10.96,13.92 -24.54,40.26 -24.59,63.21z"/>
   <path class="fil0" d="M9600.85 3911.47c0.77,26.46 0.12,38.85 39.14,45.67 23.67,4.14 41.06,-4.66 58.11,-16.87 -4.32,-51.68 -70.38,-65.99 -97.25,-28.8z"/>
   <path class="fil0" d="M13457.9 4722.18c20.67,15.01 30.25,7.47 52.36,-9.46 30.85,-23.6 35.86,-15.98 59.52,-32.65l2.59 -36.48 -45.19 -19.72 -15.76 47.08c-0.87,1.89 -2.01,3.99 -2.98,5.76 -20.46,37.5 -23.68,18.04 -50.54,45.47z"/>
   <path class="fil0" d="M12134.55 5367.31l7.82 13.35c0.58,1.22 2.12,4.16 2.84,5.66 0.71,1.51 2.04,4.02 2.83,5.69 1.28,2.69 11.9,68.16 61.06,10.22 -3.48,-41.95 -19.7,-48.18 -54.59,-62.92l-19.96 28z"/>
   <path class="fil0" d="M9857.63 5927.32l24.25 -50.54c-24.07,-14.03 -16.3,-11.23 -41.06,1.77 -17.46,-33.17 7.3,-15.76 -25.52,-38.17 -0.11,0.2 -24.66,8 -1.94,55.49 11.03,23.04 20.84,26.27 44.27,31.45z"/>
   <path class="fil0" d="M13253.57 4820.15c-0.17,36.74 9.89,18.65 -1.01,47.56 33.83,3.77 60.27,-12.54 79.81,-40.38 -26.16,-40.06 -40.3,-22.41 -78.8,-7.18z"/>
   <path class="fil0" d="M12346.78 5386.58c22.15,-26.94 19.53,-31.38 15.62,-67.79l-48.12 -0.39c-15.5,40.3 -11.59,56.01 32.5,68.18z"/>
   <path class="fil0" d="M8277.98 5203.94c3.65,-51.81 -6.73,-57.9 -51.01,-67.56 -12.03,20.89 -12.52,25.18 3.6,47.65 18.42,25.68 12.6,22.52 47.41,19.91z"/>
   <path class="fil0" d="M13373.41 4759.55c23.28,17.85 42.94,30.9 73.64,17.05 15.36,-37.81 4.87,-24.01 -25.46,-48.64 -23.9,7.48 -38.51,8.64 -48.18,31.59z"/>
   <path class="fil0" d="M14235.25 5453.13l47.28 19.68c9.79,-88.43 -55.71,-116.54 -47.28,-19.68z"/>
   <path class="fil0" d="M6335.05 7639.79c27.31,-7.23 19.93,-1.58 36.63,-26.73 -23.17,-30.86 -40.5,-27.65 -77.93,-24.3 4.55,24.75 20.06,42.24 41.3,51.03z"/>
   <path class="fil0" d="M7757.67 6368.25c29.69,-25.23 13.81,-21.25 10.92,-52.59 -3.04,-32.97 4.06,-25.27 3.35,-55.31 -44.64,11.37 -42.03,81.85 -14.27,107.9z"/>
   <path class="fil1" d="M7314.95 4723.22c-5.91,-21.13 -12.12,-22.25 -18.94,-51.91 -7.9,-34.4 0.9,-30.27 -21.01,-56.73 -13.05,23.22 -13.31,48.38 0.91,75.81 22.62,43.64 20.53,32.48 39.04,32.83z"/>
   <path class="fil0" d="M13602.16 4591.96c2.84,25.04 11.89,56.33 38.58,64.55 22.33,-24.79 9.87,-49.54 -8.07,-73.69l-30.51 9.14z"/>
   <polygon class="fil0" points="13009.05,4953.14 13020.32,4997.19 13055.22,4994.44 13074.77,4963.13 13059.46,4944.07 "/>
   <path class="fil0" d="M14183.15 5546.84l1.41 31.65 55.94 3.67 -0.08 -39.03c-26.2,-8.9 -36.89,-12.97 -57.27,3.71z"/>
   <path class="fil0" d="M15801.07 8999.31l55.85 2.92c7.05,-46.37 -19.28,-47.42 -56.11,-43.32l0.26 40.4z"/>
   <path class="fil0" d="M5970.8 7847.7c12.62,-20.94 16.19,6.75 9.12,-35.73 -6.08,-36.56 -4.98,-22.56 -25.8,-35.86 -6.39,8.95 -20.26,3 -13.68,40.56 3.54,20.28 14.67,22.18 30.36,31.03z"/>
   <path class="fil0" d="M8312.08 4623.3l35.81 0.4c9.01,-38 8.48,-35.43 -16.52,-59.21 -30.72,19.41 -33.16,21.13 -19.29,58.81z"/>
   <path class="fil0" d="M11085.88 9377.12c9.06,-16.86 13.66,-15.16 7.26,-43.49 -9.29,-41.09 -12.54,-23.25 -25,-27.36 -18.59,31.31 -25.11,59.84 17.74,70.85z"/>
   <path class="fil0" d="M12235.73 5030.93l57.26 8c-2.14,-37.74 -16.92,-35.24 -45.09,-55.04 -10.79,14.46 -15.59,27.94 -12.17,47.04z"/>
   <path class="fil0" d="M5284.17 93.6c5.33,34.24 8.21,35.55 43.7,35.22l11.76 -42.01c-29.19,-3.87 -35.41,-9.15 -55.46,6.79z"/>
   <path class="fil0" d="M6375.13 6040.62l39.59 4.7c9.33,-30.44 9.16,-24.01 -0.8,-52.3 -23.57,-0.92 -46.74,15.64 -38.79,47.6z"/>
   <path class="fil0" d="M12820.41 8076.03c37.2,-27.79 26.33,-41.46 -8.22,-61.96 -4.96,7.47 -15.2,-5.63 -13.18,31.21 1.65,30.07 7.52,20.56 21.4,30.75z"/>
   <path class="fil0" d="M9524.75 5942.59c2.02,-27.71 -15.51,-54.7 -40.27,-65.14 -17.65,32.77 2.8,65.76 40.27,65.14z"/>
   <path class="fil0" d="M5138.57 196.12c10.45,27.42 6.95,23.23 36.97,26.05 15.42,-25.56 13.44,-16.8 4.99,-48.04 -26.73,-4.3 -33.45,-3.99 -41.96,21.99z"/>
   <path class="fil0" d="M4985.4 294.53c-7.13,20.51 -17.85,-2.53 2.31,28.36 18.15,27.83 13.61,16.07 36.82,18 2.84,-36.7 -1.75,-60.85 -39.13,-46.36z"/>
   <path class="fil0" d="M9239.95 5937.11c-1.14,-12.99 2.76,-17.25 -8.18,-34.81 -17.74,-28.49 -20.95,-16.59 -36.53,-17.92 7.02,35.2 -0.7,47.83 44.71,52.73z"/>
   <path class="fil0" d="M10973.14 9363.92c-0.66,2.18 -26.94,3.46 26.98,39.31 14.76,-20.35 14.69,-19.86 16.85,-46.24 -31.54,-2.85 -21.31,-6.2 -43.83,6.93z"/>
   <path class="fil0" d="M11123.24 9295.89c19.17,29.37 10.64,23.27 37.24,26.95 18.82,-28.46 12.33,-30.27 -7.88,-53.28l-29.36 26.33z"/>
   <path class="fil0" d="M13091.72 5131.24c13.13,-21.13 22.19,-55.8 -0.25,-75.63 -5.39,10.13 -11.1,24.54 -13.61,38.24 -7.15,39.1 -5.14,28.38 13.86,37.39z"/>
   <path class="fil0" d="M8243.39 5005.36c6.24,15.64 27.46,27.48 39.43,26.25l3.59 -44.02c-24.28,-7.75 -38.33,-3.68 -43.02,17.77z"/>
   <path class="fil0" d="M6190.38 7716.96c23.8,-26.73 22.89,-29.03 0.3,-56.45 -29.97,17.48 -35.34,38.66 -0.3,56.45z"/>
   <path class="fil1" d="M8600.24 4180.4c-10.67,-34 -17.01,-57.13 -44.61,-80.11 0.27,32.28 7.22,75.08 44.61,80.11z"/>
   <path class="fil0" d="M8993.81 5928.65c22.99,-31.51 13.26,-43.67 -18.03,-52.47 -15.72,30.5 -12.91,43.89 18.03,52.47z"/>
   <path class="fil1" d="M5715.77 34.65l43.52 13.96c2.22,-37.48 9.56,-17.64 -9.98,-45.39 -8.76,1.22 -12.52,-20.32 -33.54,31.43z"/>
   <path class="fil0" d="M8203.53 5442.59c0.22,-41.34 -8.42,-38.69 -44.89,-44.51 1.54,35.84 19.83,43.97 44.89,44.51z"/>
   <path class="fil0" d="M6188.69 6170.55c11.1,26.74 9.36,26.65 42.35,27.05 1.76,-31.43 8.42,-20.3 -14.1,-40.67l-28.25 13.62z"/>
   <path class="fil0" d="M8443.38 5864.5l48.81 25.68c2.05,-39.01 -2.92,-19.42 -30.4,-53.25l-18.41 27.57z"/>
   <path class="fil0" d="M15598.23 9120.34c19.54,22.57 5.36,13.9 30.51,13.52 17.01,-24.39 16.62,-12.4 0.49,-36.85 -20.55,3.14 -24.97,-0.59 -31,23.33z"/>
   <path class="fil0" d="M6469.98 5987.5c2.66,-38.21 5.71,-34.22 -34.52,-35.43 2.32,36.9 -1.93,36.15 34.52,35.43z"/>
   <path class="fil0" d="M8653.03 4130.91c18.37,-23.42 12.64,-10.91 9.6,-44.34 -26.67,7.51 -56.84,36.75 -9.6,44.34z"/>
   <path class="fil0" d="M10374.52 5835.23c-3.07,-27.99 -9.05,-34.94 -34.92,-42.78 0.35,35.32 2.57,38.58 34.92,42.78z"/>
   <path class="fil1" d="M12373.29 5147.58c39.67,-6.23 28.25,-22.82 0.53,-39.69 -15.88,25.95 -19.08,12.1 -0.53,39.69z"/>
   <path class="fil0" d="M15455.74 9173.97l36.62 28.19c16,-23.48 13.3,-6.94 5.54,-33.44l-42.16 5.25z"/>
   <path class="fil0" d="M4831.4 5654.58c26.78,-22.23 30.61,-18.93 4.99,-40.1 -20.97,19.18 -24.45,12.97 -4.99,40.1z"/>
   <path class="fil1" d="M12506.59 5599.03l24.66 -10.34 -28.61 -33.32c-5.64,32.54 -9.42,21.08 3.95,43.66z"/>
   <path class="fil0" d="M8898.25 5959.64c-1.88,-29.27 -0.14,-27.29 -29.57,-29.23 1.56,31.27 -0.02,28.69 29.57,29.23z"/>
   <path class="fil0" d="M11548.39 5098.81c1.73,-40.24 0.67,-37.38 -39.93,-33.85l39.93 33.85z"/>
   <path class="fil0" d="M6148.2 6203.88c13,32.3 -8.02,8.32 31.77,27.55l-1.3 -32.96 -30.47 5.41z"/>
   <path class="fil0" d="M12618.53 5022.18c21.19,18.68 20.66,22.12 41.31,-0.01 -21.94,-12.16 -19.72,-13.04 -41.31,0.01z"/>
   <path class="fil1" d="M12692.96 5487.4c-4.68,-27.87 5.41,-19.22 -23.7,-24.48 1.89,31.86 -10.03,23.31 23.7,24.48z"/>
   <path class="fil0" d="M12024.41 5030.65c21.09,14.35 6.7,12.72 28.25,-0.07 -31.83,-19.78 -8.57,-13.36 -28.25,0.07z"/>
  </g>
 </g>
</svg>
