<?xml version="1.0" encoding="UTF-8"?>
<!DOCTYPE svg PUBLIC "-//W3C//DTD SVG 1.1//EN" "http://www.w3.org/Graphics/SVG/1.1/DTD/svg11.dtd">
<!-- Creator: CorelDRAW 2020 (64-Bit) -->
<svg xmlns="http://www.w3.org/2000/svg" xml:space="preserve" width="13mm" height="13mm" version="1.1" style="shape-rendering:geometricPrecision; text-rendering:geometricPrecision; image-rendering:optimizeQuality; fill-rule:evenodd; clip-rule:evenodd"
viewBox="0 0 1300 1300"
 xmlns:xlink="http://www.w3.org/1999/xlink"
 xmlns:xodm="http://www.corel.com/coreldraw/odm/2003">
 <defs>
  <style type="text/css">
   <![CDATA[
    .fil0 {fill:#c7c7c7;fill-rule:nonzero}
   ]]>
  </style>
 </defs>
 <g id="Capa_x0020_1">
  <metadata id="CorelCorpID_0Corel-Layer"/>
  <g>
   <path class="fil0" d="M238.26 1236.38c-47.96,48.47 -126.14,48.89 -174.61,0.93 -48.47,-47.96 -48.89,-126.14 -0.93,-174.61l175.54 173.68zm984.26 -994.82l-984.26 994.82 -175.54 -173.68 984.26 -994.82 211.24 86.84 -35.7 86.84zm-175.54 -173.68c47.96,-48.47 126.14,-48.89 174.61,-0.93 48.47,47.96 48.89,126.14 0.93,174.61l-175.54 -173.68zm-35.7 1081.66l0 -994.82 246.94 0 0 994.82 -246.94 0zm246.94 0c0,68.19 -55.28,123.47 -123.47,123.47 -68.19,0 -123.47,-55.28 -123.47,-123.47l246.94 0zm0 -994.82l0 994.82 -246.94 0 0 -994.82 123.47 -123.47 123.47 123.47zm-246.94 0c0,-68.19 55.28,-123.47 123.47,-123.47 68.19,0 123.47,55.28 123.47,123.47l-246.94 0zm-860.79 -123.47l984.26 0 0 246.94 -984.26 0 0 -246.94zm0 246.94c-68.19,0 -123.47,-55.28 -123.47,-123.47 0,-68.19 55.28,-123.47 123.47,-123.47l0 246.94z"/>
  </g>
 </g>
</svg>
