<?xml version="1.0" encoding="UTF-8"?>
<!DOCTYPE svg PUBLIC "-//W3C//DTD SVG 1.1//EN" "http://www.w3.org/Graphics/SVG/1.1/DTD/svg11.dtd">
<!-- Creator: CorelDRAW 2020 (64-Bit) -->
<svg xmlns="http://www.w3.org/2000/svg" xml:space="preserve" width="92.365mm" height="30.712mm" version="1.1" style="shape-rendering:geometricPrecision; text-rendering:geometricPrecision; image-rendering:optimizeQuality; fill-rule:evenodd; clip-rule:evenodd"
viewBox="0 0 9236.5 3071.2"
 xmlns:xlink="http://www.w3.org/1999/xlink"
 xmlns:xodm="http://www.corel.com/coreldraw/odm/2003">
 <defs>
  <style type="text/css">
   <![CDATA[
    .fil3 {fill:#FEFEFE}
    .fil2 {fill:#003D5B}
    .fil0 {fill:#1A5789}
    .fil1 {fill:#3373A3}
   ]]>
  </style>
 </defs>
 <g id="Capa_x0020_1">
  <metadata id="CorelCorpID_0Corel-Layer"/>
  <g id="_2750554748000">
   <path class="fil0" d="M53.51 707.36c-79.19,24.81 -52.65,89.32 -38.54,163.97l100.58 600.01c17.84,110.95 119.04,744.28 143.17,797.93 38.44,85.47 159.32,151.5 247.62,219.29l739.8 555.97c18.92,15.96 48.23,36.2 83.1,26.67 67.03,-18.34 51.68,-107.02 51.87,-179.47l-0.19 -1166.99c2.27,-206.96 15.4,-248.86 -138.49,-334.52 -201.56,-112.18 -393.96,-240.97 -590.08,-351.57 -142.08,-80.13 -317.28,-198.04 -437.23,-262.75 -42.34,-22.84 -108.19,-85.28 -161.61,-68.54z"/>
   <path class="fil1" d="M1650.5 1579.87l1.68 1327.96c0,61.79 -9.14,123.3 44.85,144.99 58.98,23.7 142.42,-76.86 232.5,-137.48l111.41 -81.84c71.78,-58.22 143.79,-109.55 220.32,-166l442.34 -330.13c97.55,-78.99 80.49,-132.15 110.07,-275.94 23.92,-116.3 222.42,-1296.38 216.45,-1324.04 -26.37,-122.3 -187.65,5.83 -244.95,39.54 -80.42,47.33 -161.01,95.53 -241.17,145.14 -83.81,51.87 -159.97,96.4 -240.82,145.4l-485.73 287.06c-91.52,60 -168.66,76.43 -166.95,225.34z"/>
   <path class="fil2" d="M1460.14 5.55l-1109.69 332.67c-63.59,22.27 -146.79,20.68 -143.28,98.67 2.83,62.79 184.28,143.08 274.56,200.89 128.47,82.27 330.73,190.02 452.65,271.72l453.08 271.39c47.89,29.2 108.02,73.91 181.14,45.3l1202.76 -720.41c46.49,-29.12 92.52,-103.35 8.54,-138.34 -95.85,-39.94 -736.17,-210.52 -928.33,-278.51 -89.92,-31.81 -297.03,-102.11 -391.43,-83.38z"/>
   <path class="fil2" d="M6995.93 2210.57c111.71,14 311.48,2.15 431.17,2.15 136.56,0 288.36,10.02 396.29,-43.43 96.44,-47.75 181.4,-127.56 170.49,-275.92 -9.82,-133.54 -103.95,-199.75 -215.72,-232.56 7.71,-6.14 -0.45,-1.53 16.24,-10.72 35.44,-19.5 66.3,-25.68 106.7,-71.01 98.9,-110.96 77.51,-330.84 -109.54,-395.87 -120.87,-42.02 -247.81,-31.12 -380.56,-31.12 -92.15,0 -341.24,-11.55 -415.14,3.89l0.07 1054.59z"/>
   <path class="fil2" d="M3566.75 2210.94l349.03 1.87 3.54 -480.84 197.65 236.39c18.28,23.33 180.33,238.67 203.49,244.37l309.27 0.05 -0.01 -1060.69 -352.88 -0.04 -0.1 464.1 -185.11 -225.95c-38.84,-43.12 -59.66,-75.51 -93.16,-116.12 -25.12,-30.46 -80.91,-89.98 -93.82,-121.36l-337.99 -0.27 0.09 1058.49z"/>
   <path class="fil2" d="M5789.41 1151.83l-361.81 0.24c-0.39,153.15 -0.06,306.59 -0.06,459.99 0,148.28 13.55,305.1 -157.32,309.84 -173.48,4.81 -168.43,-155.43 -168.42,-301.79 0,-155.94 0,-311.88 0,-467.82l-361.1 0.03c0,189.3 -21.08,617.07 22.59,773.23 58.18,208 241.02,311.23 498.82,311.17 236.44,-0.06 418.82,-76.68 499.7,-302 47.08,-131.15 27.6,-608.03 27.6,-782.89z"/>
   <path class="fil2" d="M7999.42 2212.88l372.17 -0.43 56.04 -139.57 368.47 -1.23 58.23 141.04 381.28 0.03c-3.15,-34.54 -282.21,-679.24 -333.39,-804.06l-99.03 -238.91c-19.56,-36.3 1.23,-13.85 -23.98,-25.18l-329.98 0c-19.55,5.79 -105.97,229.45 -118.52,260.31 -36.89,90.76 -77.42,179.48 -111.34,267.03 -35.63,91.96 -77.41,176.96 -111.29,267.09 -22.38,59.53 -104.7,225.59 -108.66,273.88z"/>
   <path class="fil2" d="M6926.81 1948.28c-45.06,-24.7 -92.48,-50.27 -141.9,-80.34 -26.39,-16.06 -48.46,-26.08 -72.25,-40.5 -28.98,-17.55 -43.52,-26.62 -74.29,-40 -42.77,46.89 -92.41,157.82 -244.03,124.72 -98.62,-21.54 -151.98,-103.49 -154.72,-220.12 -5.04,-215.09 172.39,-290.11 296.75,-219.31 48.11,27.4 59.47,61.3 93.95,102.28l288.52 -165.48c-14.83,-75.54 -147.47,-193.51 -234.95,-229.15 -590.99,-240.76 -1035.06,403.94 -683.96,860.9 142.92,186 471.99,252.37 687.48,142.92 88.5,-44.96 204.79,-140.71 239.4,-235.92z"/>
   <path class="fil3" d="M7342.78 1945.67l11.89 -0.05c89.26,0 288.45,27.79 282.1,-83.57 -5.82,-102.13 -205.34,-73.64 -293.94,-74.04l-0.05 157.66z"/>
   <path class="fil3" d="M7343 1570.97c87.67,-0.34 261.3,28.32 264.88,-71.55 2.18,-60.52 -34.89,-71.68 -91.79,-75.66 -54.45,-3.8 -117.88,-0.76 -173.36,-0.97l0.27 148.18z"/>
   <path class="fil3" d="M8522.32 1818.31l183.75 -0.15 -89.66 -248.15c-23.22,29.86 -92.83,228.13 -94.09,248.3z"/>
  </g>
 </g>
</svg>
